<svg width="616" height="364" viewBox="0 0 616 364" fill="none" xmlns="http://www.w3.org/2000/svg">
<path d="M411.944 132.31L361.162 162.901C351.577 150.665 339.136 143.527 323.84 141.487V82.4455C341.38 83.6692 357.899 88.6658 373.399 97.4354C388.898 106.205 401.747 117.83 411.944 132.31ZM411.944 271.195C401.747 285.675 388.898 297.3 373.399 306.069C357.899 314.839 341.38 319.835 323.84 321.059V262.018C339.136 259.978 351.577 252.84 361.162 240.604L411.944 271.195ZM308.545 321.059C277.953 319.02 251.645 306.273 229.619 282.82C207.593 259.366 196.58 232.344 196.58 201.752C196.58 171.161 207.593 144.138 229.619 120.685C251.645 97.2314 277.953 84.485 308.545 82.4455V141.487C294.065 143.527 281.624 150.461 271.223 162.289C260.822 174.118 255.621 187.272 255.621 201.752C255.621 216.232 260.822 229.387 271.223 241.215C281.624 253.044 294.065 259.978 308.545 262.018V321.059ZM599.596 215.824L540.555 153.112V85.5047H599.596V215.824ZM599.596 318H581.241L438.073 165.96V85.5047H456.122L599.596 238.156V318ZM497.115 318H438.073V188.292L497.115 251.005V318Z" fill="white"/>
<path d="M203.127 318H141.639L134.908 295.974H88.1035L106.764 236.933H116.554L78.6201 115.178L89.6331 85.5047H119.001L203.127 318ZM95.7514 222.249L66.0776 318H4.58872L69.1368 139.346L95.7514 222.249Z" fill="white"/>
</svg>
