<?xml version="1.0" encoding="UTF-8"?>
<svg version="1.1" xmlns="http://www.w3.org/2000/svg" width="284" height="372">
<path d="M0 0 C0.72510773 0.00054382 1.45021545 0.00108765 2.19729614 0.00164795 C14.19371817 0.04289488 25.43460652 1.07171746 37 4.375 C37.70946777 4.56271973 38.41893555 4.75043945 39.14990234 4.94384766 C55.23931117 9.26588297 73.17336663 16.70151526 86 27.375 C87.68303889 28.56881431 89.37074095 29.75607551 91.0625 30.9375 C96.48912674 34.85347119 101.31610465 39.18049566 106.17578125 43.76171875 C108.17621308 45.61274074 110.16684014 47.3558863 112.2734375 49.07421875 C115.74541656 52.00401197 116.59736259 54.16708778 118 58.375 C118.99 58.705 119.98 59.035 121 59.375 C125.9936123 66.69151156 128.69893384 74.50656079 128 83.375 C126.52980107 90.05181502 124.23184457 95.95294915 120 101.375 C119.29875 102.32375 118.5975 103.2725 117.875 104.25 C117.25625 104.95125 116.6375 105.6525 116 106.375 C115.34 106.375 114.68 106.375 114 106.375 C114 107.035 114 107.695 114 108.375 C113.360625 108.478125 112.72125 108.58125 112.0625 108.6875 C111.0415625 109.0278125 111.0415625 109.0278125 110 109.375 C109.67 110.365 109.34 111.355 109 112.375 C107.2578125 113.9453125 107.2578125 113.9453125 105.125 115.5 C104.07699219 116.27730469 104.07699219 116.27730469 103.0078125 117.0703125 C101 118.375 101 118.375 98 119.375 C98 120.035 98 120.695 98 121.375 C95.8967433 122.35611975 93.79236311 123.33483134 91.6875 124.3125 C89.92986328 125.13041016 89.92986328 125.13041016 88.13671875 125.96484375 C80.02944422 129.60958361 68.56290373 129.92851296 60 127.125 C58.65513289 126.56877341 57.32132642 125.98504265 56 125.375 C55.20980469 125.06175781 54.41960937 124.74851562 53.60546875 124.42578125 C49.25394983 122.64721213 46.12341292 120.99815898 43 117.375 C42.34 117.045 41.68 116.715 41 116.375 C41 115.715 41 115.055 41 114.375 C40.443125 114.106875 39.88625 113.83875 39.3125 113.5625 C36.78774666 112.26600504 34.36285516 110.95023677 32 109.375 C32 108.715 32 108.055 32 107.375 C31.4225 107.08625 30.845 106.7975 30.25 106.5 C29.5075 106.12875 28.765 105.7575 28 105.375 C27.34 105.08625 26.68 104.7975 26 104.5 C23.56440984 103.12998053 21.97483379 101.34983379 20 99.375 C18.62496965 98.42557428 17.2455768 97.48091424 15.83203125 96.58984375 C14.39543281 95.63721664 13.0056075 94.6140021 11.63671875 93.56640625 C6.39975385 89.59351999 6.39975385 89.59351999 0.1875 87.75 C-3.15532253 88.4054554 -5.21105561 89.46258099 -8 91.375 C-8.66 91.375 -9.32 91.375 -10 91.375 C-10 92.035 -10 92.695 -10 93.375 C-11.8984375 94.8828125 -11.8984375 94.8828125 -14.375 96.5 C-15.18710938 97.03882812 -15.99921875 97.57765625 -16.8359375 98.1328125 C-19 99.375 -19 99.375 -21 99.375 C-21 100.035 -21 100.695 -21 101.375 C-22.61399614 102.69230567 -24.29413839 103.92904267 -26 105.125 C-27.0003125 105.83527344 -28.000625 106.54554687 -29.03125 107.27734375 C-30.50078125 108.31568359 -30.50078125 108.31568359 -32 109.375 C-33.50516812 110.47211118 -35.00593605 111.57531434 -36.5 112.6875 C-37.1084375 113.13738281 -37.716875 113.58726563 -38.34375 114.05078125 C-40.00255384 115.32110644 -40.00255384 115.32110644 -41.3359375 116.74609375 C-43.74776574 119.10696788 -46.4400549 121.08953233 -49.125 123.125 C-50.29064166 124.0126571 -51.45600476 124.90068012 -52.62109375 125.7890625 C-53.19327637 126.22508789 -53.76545898 126.66111328 -54.35498047 127.11035156 C-57.36915697 129.42757244 -60.33174976 131.81095435 -63.29296875 134.1953125 C-65 135.375 -65 135.375 -67 135.375 C-67.33 136.365 -67.66 137.355 -68 138.375 C-68.66 139.035 -69.32 139.695 -70 140.375 C-72.05994058 144.49488115 -71.41449174 149.78180265 -71.5625 154.3125 C-71.6251001 156.18675659 -71.6251001 156.18675659 -71.68896484 158.09887695 C-72.05577389 170.08469187 -72.10957162 182.07184528 -72.125 194.0625 C-72.12888229 195.46434036 -72.12888229 195.46434036 -72.13284302 196.89450073 C-72.13875582 199.60027785 -72.1370917 202.30594043 -72.1328125 205.01171875 C-72.13479141 205.80874207 -72.13677032 206.60576538 -72.1388092 207.42694092 C-72.3902318 218.31296066 -72.3902318 218.31296066 -69 228.375 C-64.15270097 231.77343306 -57.71549532 230.70288649 -52.0625 230.6875 C-50.29229492 230.71166992 -50.29229492 230.71166992 -48.48632812 230.73632812 C-46.77799805 230.73729492 -46.77799805 230.73729492 -45.03515625 230.73828125 C-43.47873413 230.74275269 -43.47873413 230.74275269 -41.89086914 230.74731445 C-38.5695879 230.31956731 -36.68515182 229.34437187 -34 227.375 C-31.4491237 221.99340443 -31.95889842 215.49494387 -32.0625 209.6875 C-32.15993326 204.02490803 -31.8590394 200.25919231 -29 195.375 C-28.34 195.375 -27.68 195.375 -27 195.375 C-26.855625 194.6325 -26.71125 193.89 -26.5625 193.125 C-24.11958754 188.82547406 -20.66074232 187.70461638 -16 186.375 C-10.96746686 185.83399101 -5.99414442 185.8609216 -0.9375 185.9375 C0.39909566 185.93182064 1.7356859 185.92466821 3.07226562 185.91601562 C12.28467414 185.97598624 20.15823066 186.53323066 27 193.375 C30.85317413 198.96531943 31.55714265 203.04260053 31.5625 209.75 C31.59909204 216.23201901 31.76668215 222.57767919 35 228.375 C40.12825081 231.71413437 47.22956886 230.39080844 53.125 230.0625 C54.20910156 230.01416016 55.29320312 229.96582031 56.41015625 229.91601562 C62.79330733 229.71348621 62.79330733 229.71348621 69 228.375 C72.20144886 224.33657104 71.70513453 218.03969591 72.03515625 213.10546875 C72.58802211 206.83617856 74.33486524 202.93986237 78.97265625 198.4765625 C79.66230469 197.98929688 80.35195312 197.50203125 81.0625 197 C81.73410156 196.49726563 82.40570313 195.99453125 83.09765625 195.4765625 C91.86667893 192.14834662 100.43544244 195.03436891 108.8125 198.1875 C109.80958984 198.54392578 110.80667969 198.90035156 111.83398438 199.26757812 C127.21336342 204.8442658 127.21336342 204.8442658 129.984375 210.3203125 C132.51278182 217.51853192 132.40366084 223.3839979 129.4375 230.4375 C128.7259375 231.8915625 128.7259375 231.8915625 128 233.375 C127.34 233.375 126.68 233.375 126 233.375 C126 234.035 126 234.695 126 235.375 C125.34 235.375 124.68 235.375 124 235.375 C123.75378906 235.92929688 123.50757813 236.48359375 123.25390625 237.0546875 C119.53609637 243.93437306 113.55470703 249.81384246 108.3125 255.5625 C103.95458358 260.35166856 100.13784662 265.39124285 96.37109375 270.6484375 C95.83613281 271.38320313 95.30117187 272.11796875 94.75 272.875 C94.27046875 273.5453125 93.7909375 274.215625 93.296875 274.90625 C92.86890625 275.3909375 92.4409375 275.875625 92 276.375 C91.34 276.375 90.68 276.375 90 276.375 C89.6596875 277.1484375 89.6596875 277.1484375 89.3125 277.9375 C87.51782382 281.27047005 85.50034985 284.52203671 83 287.375 C82.34 287.375 81.68 287.375 81 287.375 C80.34 289.025 79.68 290.675 79 292.375 C78.34 292.375 77.68 292.375 77 292.375 C76.75636719 292.92671875 76.51273438 293.4784375 76.26171875 294.046875 C74.73152027 296.87039913 72.86367375 299.15370632 70.8125 301.625 C70.00425781 302.59953125 69.19601563 303.5740625 68.36328125 304.578125 C65.89083766 307.50419047 63.37804054 310.38797551 60.83203125 313.25 C57.74954082 316.825426 54.84267334 320.54503859 51.91796875 324.25 C51.28503906 324.95125 50.65210938 325.6525 50 326.375 C49.34 326.375 48.68 326.375 48 326.375 C47.71125 326.973125 47.4225 327.57125 47.125 328.1875 C46 330.375 46 330.375 44 333.375 C43.34 333.375 42.68 333.375 42 333.375 C41.7525 333.94089844 41.505 334.50679688 41.25 335.08984375 C39.79764463 337.74493091 38.04815279 339.71239284 36 341.9375 C33.76639308 344.37229578 31.83774888 346.61837668 30 349.375 C29.34 349.375 28.68 349.375 28 349.375 C27.6596875 350.4578125 27.6596875 350.4578125 27.3125 351.5625 C25.72668125 354.96068303 23.73876676 356.82730999 21 359.375 C19.824375 360.5815625 19.824375 360.5815625 18.625 361.8125 C17.75875 362.658125 16.8925 363.50375 16 364.375 C15.47535156 364.89578125 14.95070312 365.4165625 14.41015625 365.953125 C10.28573382 369.8063269 6.68012465 371.87084692 1 372.375 C-3.38994097 372.07737688 -7.0002162 371.19308355 -11 369.375 C-11 368.715 -11 368.055 -11 367.375 C-11.57878906 367.13265625 -12.15757812 366.8903125 -12.75390625 366.640625 C-15.41150769 365.14312436 -16.95269409 363.43602153 -18.9375 361.125 C-19.62714844 360.32449219 -20.31679687 359.52398437 -21.02734375 358.69921875 C-21.67832031 357.93222656 -22.32929688 357.16523438 -23 356.375 C-23.53753906 355.76269531 -24.07507813 355.15039062 -24.62890625 354.51953125 C-28 350.62980769 -28 350.62980769 -28 348.375 C-28.99 348.045 -29.98 347.715 -31 347.375 C-31 346.715 -31 346.055 -31 345.375 C-31.66 345.375 -32.32 345.375 -33 345.375 C-34.90923045 343.11810104 -36.71755662 340.85356219 -38.5 338.5 C-39.48849533 337.21010299 -40.47803604 335.92100626 -41.46875 334.6328125 C-41.90638672 334.0567627 -42.34402344 333.48071289 -42.79492188 332.88720703 C-44.06590447 331.23422039 -44.06590447 331.23422039 -46 329.375 C-46.9035272 328.3399998 -47.79840651 327.29742521 -48.6875 326.25 C-50.41784315 324.21204029 -52.16164436 322.19521519 -53.94921875 320.20703125 C-54.90248047 319.14548828 -54.90248047 319.14548828 -55.875 318.0625 C-56.76832031 317.07830078 -56.76832031 317.07830078 -57.6796875 316.07421875 C-59 314.375 -59 314.375 -59 312.375 C-59.66 312.375 -60.32 312.375 -61 312.375 C-62.3046875 310.93359375 -62.3046875 310.93359375 -63.875 308.8125 C-66.24223753 305.66623526 -68.64383762 302.56142907 -71.12890625 299.5078125 C-71.67369629 298.83693604 -72.21848633 298.16605957 -72.77978516 297.47485352 C-73.87911337 296.12376457 -74.98162464 294.77525893 -76.08740234 293.42944336 C-80 288.59693059 -80 288.59693059 -80 286.375 C-80.66 286.375 -81.32 286.375 -82 286.375 C-82 285.715 -82 285.055 -82 284.375 C-82.66 284.375 -83.32 284.375 -84 284.375 C-85.625 283.0625 -85.625 283.0625 -87 281.375 C-87 280.385 -87 279.395 -87 278.375 C-87.66 278.375 -88.32 278.375 -89 278.375 C-90.1484375 276.94921875 -90.1484375 276.94921875 -91.375 275.0625 C-93.32161074 272.19168238 -95.20992802 270.44171998 -98 268.375 C-98 267.385 -98 266.395 -98 265.375 C-98.66 265.375 -99.32 265.375 -100 265.375 C-100.2475 264.42625 -100.495 263.4775 -100.75 262.5 C-101.62479834 259.30571047 -101.62479834 259.30571047 -103.84375 258.4609375 C-106.60708114 257.06925986 -107.88658507 255.32769999 -109.75 252.875 C-110.36359375 252.0809375 -110.9771875 251.286875 -111.609375 250.46875 C-113 248.375 -113 248.375 -113 246.375 C-113.66 246.375 -114.32 246.375 -115 246.375 C-116.7265625 244.2578125 -116.7265625 244.2578125 -118.625 241.5 C-119.25664063 240.59507812 -119.88828125 239.69015625 -120.5390625 238.7578125 C-122 236.375 -122 236.375 -122 234.375 C-122.66 234.375 -123.32 234.375 -124 234.375 C-125.2890625 232.94921875 -125.2890625 232.94921875 -126.625 231.0625 C-127.07101563 230.44761719 -127.51703125 229.83273438 -127.9765625 229.19921875 C-129 227.375 -129 227.375 -129 224.375 C-129.66 224.375 -130.32 224.375 -131 224.375 C-140 206.89927184 -140 206.89927184 -140 201.375 C-140.66 201.375 -141.32 201.375 -142 201.375 C-147.40895929 184.06423072 -151.92550047 166.65363424 -151 148.375 C-150.96733973 147.03388777 -150.93620645 145.69273785 -150.90625 144.3515625 C-150.23116827 121.91443646 -144.49372523 101.17127083 -134 81.375 C-132.71797491 78.73127594 -131.44254708 76.08466039 -130.17578125 73.43359375 C-128.98773078 71.35351868 -127.71919219 70.02180515 -126 68.375 C-125.319375 67.323125 -124.63875 66.27125 -123.9375 65.1875 C-123.298125 64.259375 -122.65875 63.33125 -122 62.375 C-121.34 62.375 -120.68 62.375 -120 62.375 C-119.731875 61.818125 -119.46375 61.26125 -119.1875 60.6875 C-117.89100504 58.16274666 -116.57523677 55.73785516 -115 53.375 C-114.34 53.375 -113.68 53.375 -113 53.375 C-113 52.715 -113 52.055 -113 51.375 C-112.34 51.375 -111.68 51.375 -111 51.375 C-110.731875 50.776875 -110.46375 50.17875 -110.1875 49.5625 C-109.00082594 47.37652146 -107.90400887 45.96167406 -106 44.375 C-105.34 44.375 -104.68 44.375 -104 44.375 C-103.67 43.385 -103.34 42.395 -103 41.375 C-101.5625 39.6875 -101.5625 39.6875 -100 38.375 C-99.34 38.375 -98.68 38.375 -98 38.375 C-98 37.715 -98 37.055 -98 36.375 C-96.02866014 34.99964661 -94.02318078 33.67288956 -92 32.375 C-91.0925 31.6325 -90.185 30.89 -89.25 30.125 C-87 28.375 -87 28.375 -85 28.375 C-85 27.715 -85 27.055 -85 26.375 C-84.01 26.045 -83.02 25.715 -82 25.375 C-81.34 24.715 -80.68 24.055 -80 23.375 C-64.06101386 13.13366049 -46.51349275 6.25376672 -28 2.375 C-27.11812012 2.18953613 -26.23624023 2.00407227 -25.32763672 1.81298828 C-16.90314786 0.21962705 -8.54614029 -0.02419791 0 0 Z " fill="#65236A" transform="translate(151,-0.375)"/>
<path d="M0 0 C0.66 0.33 1.32 0.66 2 1 C1.87882813 1.64324219 1.75765625 2.28648438 1.6328125 2.94921875 C1.07379224 5.96362801 0.53666567 8.9815303 0 12 C-0.1762793 12.95551758 -0.35255859 13.91103516 -0.53417969 14.89550781 C-2.02803447 23.62246518 -2.40129656 32.23053944 -2.375 41.0625 C-2.37412384 41.78577484 -2.37324768 42.50904968 -2.37234497 43.25424194 C-2.32473802 55.21182323 -1.41907813 66.49414364 2 78 C2.36206543 79.23314941 2.36206543 79.23314941 2.73144531 80.49121094 C9.82806433 103.92344354 22.37474716 122.35356038 37.76953125 141.05078125 C40.78307142 144.71628493 43.7130621 148.44111039 46.625 152.1875 C50.58707907 157.27270501 54.686014 162.21552271 58.87988281 167.1105957 C62.15485393 170.95131751 65.28547691 174.88417999 68.375 178.875 C73.80399171 185.87087204 79.58870199 192.5250418 85.41992188 199.18603516 C87.88818432 202.01965536 90.32314956 204.8808911 92.75 207.75 C93.20044678 208.28230225 93.65089355 208.81460449 94.11499023 209.36303711 C96.97200191 212.7511968 99.77555134 216.17914054 102.5625 219.625 C106.38435855 224.32568164 110.42209672 228.78531253 114.5234375 233.2421875 C116.97729075 235.97471178 119.31257515 238.77221471 121.625 241.625 C124.45922441 245.12020961 127.3077403 248.59491293 130.25 252 C130.85328125 252.70125 131.4565625 253.4025 132.078125 254.125 C135.69251661 257.65123571 138.85281323 259.42946732 143.9375 259.4375 C144.75089844 259.45683594 145.56429687 259.47617187 146.40234375 259.49609375 C153.34382187 258.170428 157.88765476 252.23029856 162.4375 247.25 C163.38206055 246.23292969 163.38206055 246.23292969 164.34570312 245.1953125 C170.60864472 238.42386897 176.63635176 231.45116648 182.625 224.4375 C186.4044165 220.01662567 190.20187666 215.61251607 194.02148438 211.22631836 C199.03030799 205.47248361 203.95528178 199.67058623 208.7578125 193.7421875 C211.30253858 190.62999637 213.89625916 187.56280258 216.5 184.5 C221.40560569 178.72470244 226.22028989 172.88007503 231 167 C235.77972231 161.11990996 240.59495706 155.27578576 245.5 149.5 C249.60051633 144.66790623 253.67942421 139.82172902 257.65625 134.88671875 C259.4016182 132.73700691 261.17060951 130.62406844 262.96875 128.51953125 C270.31572712 119.91710096 270.31572712 119.91710096 272 109 C272 108.34 272 107.68 272 107 C272.99 107.33 273.98 107.66 275 108 C276.76725632 115.85447252 275.38235018 121.94118223 272 129 C271.34 129 270.68 129 270 129 C270 129.66 270 130.32 270 131 C269.34 131 268.68 131 268 131 C267.75378906 131.55429688 267.50757813 132.10859375 267.25390625 132.6796875 C263.53609637 139.55937306 257.55470703 145.43884246 252.3125 151.1875 C247.95458358 155.97666856 244.13784662 161.01624285 240.37109375 166.2734375 C239.83613281 167.00820313 239.30117187 167.74296875 238.75 168.5 C238.27046875 169.1703125 237.7909375 169.840625 237.296875 170.53125 C236.86890625 171.0159375 236.4409375 171.500625 236 172 C235.34 172 234.68 172 234 172 C233.6596875 172.7734375 233.6596875 172.7734375 233.3125 173.5625 C231.51782382 176.89547005 229.50034985 180.14703671 227 183 C226.34 183 225.68 183 225 183 C224.34 184.65 223.68 186.3 223 188 C222.34 188 221.68 188 221 188 C220.75636719 188.55171875 220.51273438 189.1034375 220.26171875 189.671875 C218.73152027 192.49539913 216.86367375 194.77870632 214.8125 197.25 C214.00425781 198.22453125 213.19601563 199.1990625 212.36328125 200.203125 C209.89083766 203.12919047 207.37804054 206.01297551 204.83203125 208.875 C201.74954082 212.450426 198.84267334 216.17003859 195.91796875 219.875 C195.28503906 220.57625 194.65210938 221.2775 194 222 C193.34 222 192.68 222 192 222 C191.71125 222.598125 191.4225 223.19625 191.125 223.8125 C190 226 190 226 188 229 C187.34 229 186.68 229 186 229 C185.7525 229.56589844 185.505 230.13179687 185.25 230.71484375 C183.79764463 233.36993091 182.04815279 235.33739284 180 237.5625 C177.76639308 239.99729578 175.83774888 242.24337668 174 245 C173.34 245 172.68 245 172 245 C171.6596875 246.0828125 171.6596875 246.0828125 171.3125 247.1875 C169.72668125 250.58568303 167.73876676 252.45230999 165 255 C163.824375 256.2065625 163.824375 256.2065625 162.625 257.4375 C161.75875 258.283125 160.8925 259.12875 160 260 C159.47535156 260.52078125 158.95070312 261.0415625 158.41015625 261.578125 C154.28573382 265.4313269 150.68012465 267.49584692 145 268 C140.61005903 267.70237688 136.9997838 266.81808355 133 265 C133 264.34 133 263.68 133 263 C132.42121094 262.75765625 131.84242188 262.5153125 131.24609375 262.265625 C128.58849231 260.76812436 127.04730591 259.06102153 125.0625 256.75 C124.37285156 255.94949219 123.68320313 255.14898437 122.97265625 254.32421875 C122.32167969 253.55722656 121.67070312 252.79023438 121 252 C120.46246094 251.38769531 119.92492187 250.77539062 119.37109375 250.14453125 C116 246.25480769 116 246.25480769 116 244 C115.01 243.67 114.02 243.34 113 243 C113 242.34 113 241.68 113 241 C112.34 241 111.68 241 111 241 C109.09076955 238.74310104 107.28244338 236.47856219 105.5 234.125 C104.51150467 232.83510299 103.52196396 231.54600626 102.53125 230.2578125 C102.09361328 229.6817627 101.65597656 229.10571289 101.20507812 228.51220703 C99.93409553 226.85922039 99.93409553 226.85922039 98 225 C97.0964728 223.9649998 96.20159349 222.92242521 95.3125 221.875 C93.58215685 219.83704029 91.83835564 217.82021519 90.05078125 215.83203125 C89.09751953 214.77048828 89.09751953 214.77048828 88.125 213.6875 C87.23167969 212.70330078 87.23167969 212.70330078 86.3203125 211.69921875 C85 210 85 210 85 208 C84.34 208 83.68 208 83 208 C81.6953125 206.55859375 81.6953125 206.55859375 80.125 204.4375 C77.75776247 201.29123526 75.35616238 198.18642907 72.87109375 195.1328125 C72.32630371 194.46193604 71.78151367 193.79105957 71.22021484 193.09985352 C70.12088663 191.74876457 69.01837536 190.40025893 67.91259766 189.05444336 C64 184.22193059 64 184.22193059 64 182 C63.34 182 62.68 182 62 182 C62 181.34 62 180.68 62 180 C61.34 180 60.68 180 60 180 C58.375 178.6875 58.375 178.6875 57 177 C57 176.01 57 175.02 57 174 C56.34 174 55.68 174 55 174 C53.8515625 172.57421875 53.8515625 172.57421875 52.625 170.6875 C50.67838926 167.81668238 48.79007198 166.06671998 46 164 C46 163.01 46 162.02 46 161 C45.34 161 44.68 161 44 161 C43.7525 160.05125 43.505 159.1025 43.25 158.125 C42.37520166 154.93071047 42.37520166 154.93071047 40.15625 154.0859375 C37.39291886 152.69425986 36.11341493 150.95269999 34.25 148.5 C33.63640625 147.7059375 33.0228125 146.911875 32.390625 146.09375 C31 144 31 144 31 142 C30.34 142 29.68 142 29 142 C27.2734375 139.8828125 27.2734375 139.8828125 25.375 137.125 C24.74335938 136.22007812 24.11171875 135.31515625 23.4609375 134.3828125 C22 132 22 132 22 130 C21.34 130 20.68 130 20 130 C18.7109375 128.57421875 18.7109375 128.57421875 17.375 126.6875 C16.92898437 126.07261719 16.48296875 125.45773438 16.0234375 124.82421875 C15 123 15 123 15 120 C14.34 120 13.68 120 13 120 C4 102.52427184 4 102.52427184 4 97 C3.34 97 2.68 97 2 97 C-3.40895929 79.68923072 -7.92550047 62.27863424 -7 44 C-6.96733973 42.65888777 -6.93620645 41.31773785 -6.90625 39.9765625 C-6.49426016 26.46629214 -4.59221665 12.76759786 0 0 Z " fill="#0E0E0E" transform="translate(7,104)"/>
<path d="M0 0 C3.09313101 3.09313101 2.80684351 6.38015445 3.09765625 10.625 C2.87006343 18.49060797 -0.18293605 25.82813682 -5 32 C-5.70125 32.94875 -6.4025 33.8975 -7.125 34.875 C-8.053125 35.926875 -8.053125 35.926875 -9 37 C-9.66 37 -10.32 37 -11 37 C-11 37.66 -11 38.32 -11 39 C-11.9590625 39.1546875 -11.9590625 39.1546875 -12.9375 39.3125 C-13.618125 39.539375 -14.29875 39.76625 -15 40 C-15.33 40.99 -15.66 41.98 -16 43 C-17.7421875 44.5703125 -17.7421875 44.5703125 -19.875 46.125 C-20.92300781 46.90230469 -20.92300781 46.90230469 -21.9921875 47.6953125 C-24 49 -24 49 -27 50 C-27 50.66 -27 51.32 -27 52 C-29.1032567 52.98111975 -31.20763689 53.95983134 -33.3125 54.9375 C-35.07013672 55.75541016 -35.07013672 55.75541016 -36.86328125 56.58984375 C-44.97055578 60.23458361 -56.43709627 60.55351296 -65 57.75 C-66.34486711 57.19377341 -67.67867358 56.61004265 -69 56 C-69.79019531 55.68675781 -70.58039063 55.37351563 -71.39453125 55.05078125 C-75.74605017 53.27221213 -78.87658708 51.62315898 -82 48 C-82.66 47.67 -83.32 47.34 -84 47 C-84 46.34 -84 45.68 -84 45 C-84.556875 44.731875 -85.11375 44.46375 -85.6875 44.1875 C-88.21225334 42.89100504 -90.63714484 41.57523677 -93 40 C-93 39.34 -93 38.68 -93 38 C-93.5775 37.71125 -94.155 37.4225 -94.75 37.125 C-95.4925 36.75375 -96.235 36.3825 -97 36 C-97.99 35.566875 -97.99 35.566875 -99 35.125 C-101.43559016 33.75498053 -103.02516621 31.97483379 -105 30 C-106.37503035 29.05057428 -107.7544232 28.10591424 -109.16796875 27.21484375 C-110.60456719 26.26221664 -111.9943925 25.2390021 -113.36328125 24.19140625 C-118.60024615 20.21851999 -118.60024615 20.21851999 -124.8125 18.375 C-128.15532253 19.0304554 -130.21105561 20.08758099 -133 22 C-133.66 22 -134.32 22 -135 22 C-135 22.66 -135 23.32 -135 24 C-136.8984375 25.5078125 -136.8984375 25.5078125 -139.375 27.125 C-140.18710938 27.66382812 -140.99921875 28.20265625 -141.8359375 28.7578125 C-144 30 -144 30 -146 30 C-146 30.66 -146 31.32 -146 32 C-147.61399614 33.31730567 -149.29413839 34.55404267 -151 35.75 C-152.0003125 36.46027344 -153.000625 37.17054687 -154.03125 37.90234375 C-155.0109375 38.59457031 -155.990625 39.28679687 -157 40 C-158.50516812 41.09711118 -160.00593605 42.20031434 -161.5 43.3125 C-162.41265625 43.98732422 -162.41265625 43.98732422 -163.34375 44.67578125 C-165.00255384 45.94610644 -165.00255384 45.94610644 -166.3359375 47.37109375 C-168.74776574 49.73196788 -171.4400549 51.71453233 -174.125 53.75 C-175.29064166 54.6376571 -176.45600476 55.52568012 -177.62109375 56.4140625 C-178.19327637 56.85008789 -178.76545898 57.28611328 -179.35498047 57.73535156 C-182.36915697 60.05257244 -185.33174976 62.43595435 -188.29296875 64.8203125 C-190 66 -190 66 -192 66 C-192.33 66.99 -192.66 67.98 -193 69 C-193.99 69.99 -193.99 69.99 -195 71 C-197.05994058 75.11988115 -196.41449174 80.40680265 -196.5625 84.9375 C-196.6042334 86.18700439 -196.6459668 87.43650879 -196.68896484 88.72387695 C-197.05577389 100.70969187 -197.10957162 112.69684528 -197.125 124.6875 C-197.1275882 125.62206024 -197.13017639 126.55662048 -197.13284302 127.51950073 C-197.13875582 130.22527785 -197.1370917 132.93094043 -197.1328125 135.63671875 C-197.13479141 136.43374207 -197.13677032 137.23076538 -197.1388092 138.05194092 C-197.11034977 145.08238944 -196.85568947 152.18734763 -195 159 C-198.66036929 155.7150532 -200.3837998 153.86931119 -201 149 C-201.09055339 146.73373875 -201.12788609 144.46509064 -201.12939453 142.19702148 C-201.13114685 141.53281693 -201.13289917 140.86861237 -201.13470459 140.1842804 C-201.13909127 137.9965246 -201.13619397 135.80885032 -201.1328125 133.62109375 C-201.13348701 132.08757003 -201.13445826 130.55404642 -201.13571167 129.02052307 C-201.13718481 125.80525699 -201.13504848 122.59001871 -201.13037109 119.37475586 C-201.12470775 115.28551961 -201.12793357 111.1963495 -201.13394356 107.10711575 C-201.13758845 103.93693053 -201.13639213 100.7667605 -201.13381577 97.59657478 C-201.13315555 96.09093276 -201.13394269 94.5852893 -201.13629532 93.07964897 C-201.16844629 66.69478222 -201.16844629 66.69478222 -196 61 C-193.8816223 59.13295525 -191.81514627 57.43078723 -189.5625 55.75 C-188.94342773 55.27602783 -188.32435547 54.80205566 -187.68652344 54.3137207 C-186.40934764 53.33697074 -185.12922907 52.36405661 -183.84619141 51.39501953 C-181.13278644 49.34471591 -178.44298671 47.26455582 -175.75 45.1875 C-174.682357 44.36840442 -173.6146463 43.54939707 -172.546875 42.73046875 C-168.35000746 39.50572294 -164.17590903 36.25180755 -160 33 C-157.71124919 31.21986048 -155.42229277 29.43998564 -153.13330078 27.66015625 C-151.7793245 26.60647821 -150.42605009 25.55189715 -149.07373047 24.49609375 C-145.40568679 21.63264677 -141.71729937 18.79951098 -138 16 C-137.15824219 15.35804687 -136.31648438 14.71609375 -135.44921875 14.0546875 C-131.92584258 11.50838203 -129.66435995 10.10134304 -125.3125 9.4375 C-118.08312673 10.66512942 -112.66628253 15.26834905 -106.9375 19.5625 C-106.09550049 20.18801758 -105.25350098 20.81353516 -104.38598633 21.45800781 C-99.61750077 25.00990829 -94.88682578 28.60730109 -90.1875 32.25 C-88.12732673 33.8363596 -86.06479831 35.41966503 -84 37 C-83.42942871 37.43860352 -82.85885742 37.87720703 -82.27099609 38.32910156 C-70.41009564 47.37922413 -60.39771084 52.70305354 -45 51 C-36.89390677 49.22777522 -31.20664368 45.31848759 -25 40 C-23.1252591 38.49967619 -21.25024923 36.99968841 -19.375 35.5 C-17.57662368 34.00805093 -15.78440398 32.50863245 -14 31 C-13.31421875 30.42507812 -12.6284375 29.85015625 -11.921875 29.2578125 C-5.11049776 23.06834362 -1.96450493 15.47952498 -1.25 6.375 C-1.21390625 5.37210937 -1.1778125 4.36921875 -1.140625 3.3359375 C-1 1 -1 1 0 0 Z " fill="#0A090B" transform="translate(276,69)"/>
<path d="M0 0 C2 2 2 2 2.23377991 4.48901367 C2.22632248 5.53806885 2.21886505 6.58712402 2.21118164 7.66796875 C2.20780289 8.85680664 2.20442413 10.04564453 2.20094299 11.27050781 C2.18748337 12.56311523 2.17402374 13.85572266 2.16015625 15.1875 C2.15388181 16.52831593 2.14864306 17.86913706 2.14439392 19.20996094 C2.13106691 22.75063493 2.1066492 26.2911377 2.07904053 29.83172607 C2.03603112 35.46976754 2.00597031 41.10784673 1.9829998 46.7460022 C1.97289709 48.7033395 1.95553886 50.6606351 1.93800354 52.61791992 C1.89382794 60.82988203 1.85232346 69.02023736 4 77 C0.34273987 73.71784347 -1.37087022 71.86284554 -2 67 C-2.09379226 65.01350491 -2.13793014 63.02433907 -2.14526367 61.03564453 C-2.15164352 59.85737091 -2.15802338 58.67909729 -2.16459656 57.46511841 C-2.16570938 56.20045746 -2.1668222 54.93579651 -2.16796875 53.6328125 C-2.17129715 52.32472626 -2.17462555 51.01664001 -2.17805481 49.66891479 C-2.18403024 46.90345433 -2.18589634 44.13802505 -2.18530273 41.37255859 C-2.1852012 37.84327081 -2.19885126 34.3141846 -2.21607494 30.78494453 C-2.22992188 27.40089773 -2.22928504 24.01688723 -2.23046875 20.6328125 C-2.23765427 19.37220001 -2.24483978 18.11158752 -2.25224304 16.81277466 C-2.23670314 10.82953193 -2.09666919 5.63301314 0 0 Z " fill="#111111" transform="translate(77,151)"/>
<path d="M0 0 C0.66 0.33 1.32 0.66 2 1 C2.05789006 4.45826342 2.09355821 7.91640293 2.125 11.375 C2.14175781 12.35984375 2.15851563 13.3446875 2.17578125 14.359375 C2.18222656 15.30039063 2.18867187 16.24140625 2.1953125 17.2109375 C2.20578613 18.08024902 2.21625977 18.94956055 2.22705078 19.84521484 C2 22 2 22 0 24 C-0.6425235 26.06874034 -0.6425235 26.06874034 -1 28 C-1.66 28 -2.32 28 -3 28 C-3.08761663 24.45849107 -3.14059739 20.91726367 -3.1875 17.375 C-3.21263672 16.37597656 -3.23777344 15.37695312 -3.26367188 14.34765625 C-3.31985439 8.69194968 -3.11368953 4.78903429 0 0 Z " fill="#473249" transform="translate(122,196)"/>
<path d="M0 0 C-0.01160156 1.03898438 -0.02320312 2.07796875 -0.03515625 3.1484375 C-0.22933516 16.69294013 -0.22933516 16.69294013 2 30 C-1.66728154 26.7088499 -3.40085816 24.88064983 -4 20 C-4.09302593 17.28035949 -4.13985367 14.59322135 -4.125 11.875 C-4.12886719 11.15957031 -4.13273437 10.44414062 -4.13671875 9.70703125 C-4.13079654 6.53865016 -4.00896618 4.02689855 -3 1 C-1 0 -1 0 0 0 Z " fill="#181718" transform="translate(79,198)"/>
<path d="M0 0 C2 1 2 1 2.80859375 2.828125 C3 5 3 5 1.78515625 6.921875 C1.21667969 7.52515625 0.64820313 8.1284375 0.0625 8.75 C-0.50339844 9.36359375 -1.06929687 9.9771875 -1.65234375 10.609375 C-2.09707031 11.06828125 -2.54179687 11.5271875 -3 12 C-3.33 11.34 -3.66 10.68 -4 10 C-7.465 11.485 -7.465 11.485 -11 13 C-9.43638038 9.16202456 -6.97489917 6.8332373 -4 4 C-3.236875 3.236875 -2.47375 2.47375 -1.6875 1.6875 C-1.130625 1.130625 -0.57375 0.57375 0 0 Z " fill="#040304" transform="translate(251,257)"/>
<path d="M0 0 C2 2 2 2 2.22705078 4.06298828 C2.21657715 4.89040527 2.20610352 5.71782227 2.1953125 6.5703125 C2.18886719 7.46621094 2.18242188 8.36210937 2.17578125 9.28515625 C2.15902344 10.22230469 2.14226562 11.15945312 2.125 12.125 C2.11597656 13.06988281 2.10695313 14.01476562 2.09765625 14.98828125 C2.07404522 17.32577292 2.04111516 19.66276123 2 22 C1.34 22.33 0.68 22.66 0 23 C-0.66 22.67 -1.32 22.34 -2 22 C-2.05454409 19.64551325 -2.0939279 17.29232125 -2.125 14.9375 C-2.14820312 13.62652344 -2.17140625 12.31554687 -2.1953125 10.96484375 C-1.99417522 6.88175701 -1.27165462 3.85000947 0 0 Z " fill="#131313" transform="translate(77,151)"/>
<path d="M0 0 C0.99 0.33 1.98 0.66 3 1 C3.06058594 2.21816406 3.12117187 3.43632812 3.18359375 4.69140625 C3.26806403 6.31511277 3.35270872 7.93881022 3.4375 9.5625 C3.47681641 10.36236328 3.51613281 11.16222656 3.55664062 11.98632812 C3.80748156 16.71371506 4.25321814 21.32476901 5 26 C1.93460388 23.13237137 0.1240992 21.27888835 -0.11352539 16.9152832 C-0.10828857 16.13499756 -0.10305176 15.35471191 -0.09765625 14.55078125 C-0.09443359 13.70322266 -0.09121094 12.85566406 -0.08789062 11.98242188 C-0.07951172 11.10134766 -0.07113281 10.22027344 -0.0625 9.3125 C-0.05798828 8.41982422 -0.05347656 7.52714844 -0.04882812 6.60742188 C-0.03704983 4.40488013 -0.02060164 2.20247401 0 0 Z " fill="#0F0F0F" transform="translate(179,200)"/>
<path d="M0 0 C1.32 0.33 2.64 0.66 4 1 C4.38951724 3.43598091 4.76203193 5.87254794 5.125 8.3125 C5.29322266 9.34793945 5.29322266 9.34793945 5.46484375 10.40429688 C6.2265625 15.66015625 6.2265625 15.66015625 4 19 C3.34 19 2.68 19 2 19 C0.82706111 12.6221448 -0.29530838 6.49678438 0 0 Z " fill="#141414" transform="translate(1,161)"/>
<path d="M0 0 C0.66 0 1.32 0 2 0 C1.22095672 14.78132118 1.22095672 14.78132118 -1 21 C-1.66 21 -2.32 21 -3 21 C-3.3266129 5.32258065 -3.3266129 5.32258065 0 0 Z " fill="#070707" transform="translate(226,202)"/>
<path d="M0 0 C0.33 0 0.66 0 1 0 C1.02685412 2.31243792 1.04632841 4.6249627 1.0625 6.9375 C1.07410156 8.22527344 1.08570312 9.51304687 1.09765625 10.83984375 C1 14 1 14 0 15 C-0.33 15.99 -0.66 16.98 -1 18 C-1.66 18 -2.32 18 -3 18 C-3 13.05 -3 8.1 -3 3 C-2.34 3 -1.68 3 -1 3 C-0.67 2.01 -0.34 1.02 0 0 Z " fill="#0B0B0B" transform="translate(122,206)"/>
<path d="M0 0 C0.99 0 1.98 0 3 0 C3 2.97 3 5.94 3 9 C2.01 9.33 1.02 9.66 0 10 C-0.33 10.99 -0.66 11.98 -1 13 C-1.02686553 11.02090602 -1.04633375 9.04171029 -1.0625 7.0625 C-1.07410156 5.96035156 -1.08570312 4.85820312 -1.09765625 3.72265625 C-1 1 -1 1 0 0 Z " fill="#0B0B0B" transform="translate(76,189)"/>
<path d="M0 0 C0.66 0 1.32 0 2 0 C2.33 2.97 2.66 5.94 3 9 C2.01 9.495 2.01 9.495 1 10 C0.34 9.67 -0.32 9.34 -1 9 C-1.125 2.25 -1.125 2.25 0 0 Z " fill="#272727" transform="translate(76,164)"/>
<path d="M0 0 C0.33 0 0.66 0 1 0 C1 3.63 1 7.26 1 11 C0.01 11.495 0.01 11.495 -1 12 C-2.50934217 8.98131566 -2.17510672 6.32702771 -2 3 C-1.34 2.01 -0.68 1.02 0 0 Z " fill="#060606" transform="translate(3,131)"/>
<path d="M0 0 C1.32 0.33 2.64 0.66 4 1 C4.07427838 4.34252724 4.06546953 6.8035914 3 10 C2.34 10 1.68 10 1 10 C-0.1577506 6.52674819 -0.06866652 3.63932552 0 0 Z " fill="#1F1F1F" transform="translate(1,161)"/>
<path d="M0 0 C0 2.64 0 5.28 0 8 C-1.32 7.67 -2.64 7.34 -4 7 C-3.625 4.0625 -3.625 4.0625 -3 1 C-1 0 -1 0 0 0 Z " fill="#3C3C3C" transform="translate(79,198)"/>
<path d="M0 0 C0.99 0.33 1.98 0.66 3 1 C3 3.31 3 5.62 3 8 C2.01 8.33 1.02 8.66 0 9 C0 6.03 0 3.06 0 0 Z " fill="#090909" transform="translate(179,200)"/>
<path d="M0 0 C0.99 0.33 1.98 0.66 3 1 C3.125 4.375 3.125 4.375 3 8 C2.34 8.66 1.68 9.32 1 10 C-0 9 -0 9 -0.09765625 6.93359375 C-0.08605469 6.10988281 -0.07445313 5.28617188 -0.0625 4.4375 C-0.05347656 3.61121094 -0.04445312 2.78492188 -0.03515625 1.93359375 C-0.02355469 1.29550781 -0.01195313 0.65742188 0 0 Z " fill="#111111" transform="translate(1,141)"/>
<path d="M0 0 C0.66 0.33 1.32 0.66 2 1 C1.34 3.97 0.68 6.94 0 10 C-0.99 9.67 -1.98 9.34 -3 9 C-2.01 6.03 -1.02 3.06 0 0 Z " fill="#010101" transform="translate(7,104)"/>
<path d="M0 0 C0.66 0 1.32 0 2 0 C1.4739075 3.78786597 0.61896089 6.17152224 -2 9 C-2.66 9 -3.32 9 -4 9 C-4 7.68 -4 6.36 -4 5 C-3.01 5 -2.02 5 -1 5 C-0.67 3.35 -0.34 1.7 0 0 Z " fill="#1E1E1E" transform="translate(245,267)"/>
<path d="M0 0 C0.19990835 3.59835033 -0.03191281 5.93853104 -2 9 C-2.99 9.495 -2.99 9.495 -4 10 C-4.29296875 3.9453125 -4.29296875 3.9453125 -4 2 C-1 0 -1 0 0 0 Z " fill="#020202" transform="translate(79,148)"/>
<path d="M0 0 C2.475 0.99 2.475 0.99 5 2 C4.67 3.32 4.34 4.64 4 6 C2.62437146 4.71034824 1.29233607 3.37310707 0 2 C0 1.34 0 0.68 0 0 Z " fill="#343434" transform="translate(60,273)"/>
<path d="" fill="#FFFFFF" transform="translate(0,0)"/>
</svg>
