<?xml version="1.0" encoding="UTF-8"?>
<svg version="1.1" xmlns="http://www.w3.org/2000/svg" width="1410" height="2000">
<path d="M0 0 C0 0.66 0 1.32 0 2 C0.66 2 1.32 2 2 2 C2 2.66 2 3.32 2 4 C2.9590625 4.4021875 2.9590625 4.4021875 3.9375 4.8125 C6 6 6 6 7 9 C7.99 9.33 8.98 9.66 10 10 C10 10.66 10 11.32 10 12 C11.32 12 12.64 12 14 12 C15.75 13.375 15.75 13.375 17 15 C17 15.66 17 16.32 17 17 C17.66 17 18.32 17 19 17 C20.625 18.375 20.625 18.375 22 20 C22 20.66 22 21.32 22 22 C22.99 22 23.98 22 25 22 C25 22.66 25 23.32 25 24 C26.32 24.33 27.64 24.66 29 25 C29.33 26.32 29.66 27.64 30 29 C31.32 29.33 32.64 29.66 34 30 C34 30.66 34 31.32 34 32 C34.99 32 35.98 32 37 32 C37 32.66 37 33.32 37 34 C37.99 34.33 38.98 34.66 40 35 C40 35.66 40 36.32 40 37 C40.639375 37.268125 41.27875 37.53625 41.9375 37.8125 C44 39 44 39 45 42 C46.65 42.33 48.3 42.66 50 43 C50 43.66 50 44.32 50 45 C50.66 45 51.32 45 52 45 C52 45.66 52 46.32 52 47 C52.99 47.33 53.98 47.66 55 48 C55 48.66 55 49.32 55 50 C55.66 50 56.32 50 57 50 C57 50.66 57 51.32 57 52 C58.0828125 52.37125 58.0828125 52.37125 59.1875 52.75 C62.27606582 54.12269592 64.51011418 55.72353296 67 58 C67 58.66 67 59.32 67 60 C67.66 60 68.32 60 69 60 C69.33 60.66 69.66 61.32 70 62 C70.99 62.33 71.98 62.66 73 63 C73 63.66 73 64.32 73 65 C73.66 65 74.32 65 75 65 C75 65.66 75 66.32 75 67 C75.639375 67.268125 76.27875 67.53625 76.9375 67.8125 C79 69 79 69 80 72 C82.28891028 73.37334617 84.45752447 74.15250816 87 75 C88.6875 76.4375 88.6875 76.4375 90 78 C90 78.66 90 79.32 90 80 C90.66 80 91.32 80 92 80 C93.625 81.375 93.625 81.375 95 83 C95 83.66 95 84.32 95 85 C95.99 85 96.98 85 98 85 C98 85.66 98 86.32 98 87 C99.32 87.33 100.64 87.66 102 88 C102.33 89.32 102.66 90.64 103 92 C104.32 92.33 105.64 92.66 107 93 C107 93.66 107 94.32 107 95 C107.99 95 108.98 95 110 95 C110 95.66 110 96.32 110 97 C110.99 97.33 111.98 97.66 113 98 C113 98.66 113 99.32 113 100 C113.639375 100.268125 114.27875 100.53625 114.9375 100.8125 C117 102 117 102 118 105 C120.42383077 106.16953416 120.42383077 106.16953416 123 107 C123.66 107.33 124.32 107.66 125 108 C125 108.66 125 109.32 125 110 C125.99 110.33 126.98 110.66 128 111 C128 111.66 128 112.32 128 113 C128.66 113 129.32 113 130 113 C130 113.66 130 114.32 130 115 C130.721875 115.2475 131.44375 115.495 132.1875 115.75 C135.27606582 117.12269592 137.51011418 118.72353296 140 121 C140 121.66 140 122.32 140 123 C140.66 123 141.32 123 142 123 C143.625 124.375 143.625 124.375 145 126 C145 126.66 145 127.32 145 128 C145.99 128 146.98 128 148 128 C148 128.66 148 129.32 148 130 C148.639375 130.268125 149.27875 130.53625 149.9375 130.8125 C152 132 152 132 153 135 C155.28891028 136.37334617 157.45752447 137.15250816 160 138 C161.6875 139.4375 161.6875 139.4375 163 141 C163 141.66 163 142.32 163 143 C163.66 143 164.32 143 165 143 C166.625 144.375 166.625 144.375 168 146 C168 146.66 168 147.32 168 148 C168.99 148 169.98 148 171 148 C171 148.66 171 149.32 171 150 C172.32 150.33 173.64 150.66 175 151 C175.33 152.32 175.66 153.64 176 155 C177.32 155.33 178.64 155.66 180 156 C180.33 157.32 180.66 158.64 181 160 C182.65 160.33 184.3 160.66 186 161 C186 161.66 186 162.32 186 163 C186.639375 163.268125 187.27875 163.53625 187.9375 163.8125 C190 165 190 165 191 168 C193.42383077 169.16953416 193.42383077 169.16953416 196 170 C196.66 170.33 197.32 170.66 198 171 C198 171.66 198 172.32 198 173 C198.99 173 199.98 173 201 173 C201.103125 172.360625 201.20625 171.72125 201.3125 171.0625 C201.539375 170.381875 201.76625 169.70125 202 169 C202.99 168.67 203.98 168.34 205 168 C205.33 166.35 205.66 164.7 206 163 C206.66 163 207.32 163 208 163 C208 162.01 208 161.02 208 160 C208.66 160 209.32 160 210 160 C210.33 158.35 210.66 156.7 211 155 C211.66 155 212.32 155 213 155 C213 153.68 213 152.36 213 151 C213.66 150.67 214.32 150.34 215 150 C215.65213292 147.97536745 215.65213292 147.97536745 216 146 C216.66 146 217.32 146 218 146 C218 145.01 218 144.02 218 143 C218.66 143 219.32 143 220 143 C220.33 141.35 220.66 139.7 221 138 C221.66 138 222.32 138 223 138 C223 137.34 223 136.68 223 136 C223.66 136 224.32 136 225 136 C225.33 134.02 225.66 132.04 226 130 C226.66 130 227.32 130 228 130 C228 129.34 228 128.68 228 128 C228.66 128 229.32 128 230 128 C230.33 126.35 230.66 124.7 231 123 C231.66 123 232.32 123 233 123 C233 122.01 233 121.02 233 120 C233.66 120 234.32 120 235 120 C235.33 118.35 235.66 116.7 236 115 C236.66 115 237.32 115 238 115 C238 113.68 238 112.36 238 111 C238.66 110.67 239.32 110.34 240 110 C241.05352843 107.69034152 242.05719096 105.3570226 243 103 C243.66 103 244.32 103 245 103 C245.103125 102.236875 245.20625 101.47375 245.3125 100.6875 C246.07450085 97.70876939 246.85087021 97.0631646 249 95 C250.19027984 92.40084462 250.19027984 92.40084462 251 90 C251.66 90 252.32 90 253 90 C253.309375 89.21625 253.61875 88.4325 253.9375 87.625 C255 85 255 85 256 83 C256.66 83 257.32 83 258 83 C258.12375 82.236875 258.2475 81.47375 258.375 80.6875 C259 78 259 78 261 75 C261.66 75 262.32 75 263 75 C263.33 73.35 263.66 71.7 264 70 C264.66 70 265.32 70 266 70 C266 69.01 266 68.02 266 67 C266.66 67 267.32 67 268 67 C268.33 65.35 268.66 63.7 269 62 C269.66 62 270.32 62 271 62 C271 60.68 271 59.36 271 58 C271.66 57.67 272.32 57.34 273 57 C274.05352843 54.69034152 275.05719096 52.3570226 276 50 C276.66 50 277.32 50 278 50 C278.33 48.35 278.66 46.7 279 45 C279.66 45 280.32 45 281 45 C281 44.34 281 43.68 281 43 C281.66 43 282.32 43 283 43 C283.33 41.02 283.66 39.04 284 37 C284.66 37 285.32 37 286 37 C286 36.34 286 35.68 286 35 C286.66 35 287.32 35 288 35 C288.33 33.35 288.66 31.7 289 30 C289.66 30 290.32 30 291 30 C291 29.01 291 28.02 291 27 C291.66 27 292.32 27 293 27 C293.33 25.35 293.66 23.7 294 22 C294.66 22 295.32 22 296 22 C296 21.01 296 20.02 296 19 C296.66 19 297.32 19 298 19 C298.33 17.35 298.66 15.7 299 14 C299.66 14 300.32 14 301 14 C301 12.68 301 11.36 301 10 C301.66 9.67 302.32 9.34 303 9 C303.65213292 6.97536745 303.65213292 6.97536745 304 5 C305.32 4.67 306.64 4.34 308 4 C308.33 2.35 308.66 0.7 309 -1 C424.17 -1 539.34 -1 658 -1 C657.67 0.65 657.34 2.3 657 4 C655.515 4.495 655.515 4.495 654 5 C653.67 7.31 653.34 9.62 653 12 C652.34 12 651.68 12 651 12 C651 12.66 651 13.32 651 14 C650.34 14 649.68 14 649 14 C648.67 15.65 648.34 17.3 648 19 C647.34 19 646.68 19 646 19 C646 19.99 646 20.98 646 22 C645.34 22 644.68 22 644 22 C643.67 23.65 643.34 25.3 643 27 C642.34 27 641.68 27 641 27 C641 27.99 641 28.98 641 30 C640.34 30 639.68 30 639 30 C638.67 31.65 638.34 33.3 638 35 C637.34 35 636.68 35 636 35 C636 35.99 636 36.98 636 38 C635.34 38 634.68 38 634 38 C633.67 39.65 633.34 41.3 633 43 C632.34 43 631.68 43 631 43 C631 43.66 631 44.32 631 45 C630.34 45 629.68 45 629 45 C628.938125 45.845625 628.87625 46.69125 628.8125 47.5625 C627.81850182 51.76787691 625.97837736 54.86388926 623 58 C622.34 58 621.68 58 621 58 C620.87625 58.7425 620.7525 59.485 620.625 60.25 C620.04513299 62.80141485 619.26291261 64.7267573 618 67 C617.34 67 616.68 67 616 67 C615.87625 67.5775 615.7525 68.155 615.625 68.75 C614.99351176 71.02335767 614.11141809 72.9253529 613 75 C612.34 75 611.68 75 611 75 C610.67 76.65 610.34 78.3 610 80 C609.34 80 608.68 80 608 80 C608 80.99 608 81.98 608 83 C607.34 83 606.68 83 606 83 C605.67 84.65 605.34 86.3 605 88 C604.34 88 603.68 88 603 88 C603 88.66 603 89.32 603 90 C602.34 90 601.68 90 601 90 C600.67 91.98 600.34 93.96 600 96 C599.34 96 598.68 96 598 96 C598 96.66 598 97.32 598 98 C597.34 98 596.68 98 596 98 C595.67 99.65 595.34 101.3 595 103 C594.34 103 593.68 103 593 103 C593 103.99 593 104.98 593 106 C592.34 106 591.68 106 591 106 C590.67 107.65 590.34 109.3 590 111 C589.34 111 588.68 111 588 111 C588 112.32 588 113.64 588 115 C587.34 115.33 586.68 115.66 586 116 C585.34786708 118.02463255 585.34786708 118.02463255 585 120 C584.34 120 583.68 120 583 120 C583 120.99 583 121.98 583 123 C582.34 123 581.68 123 581 123 C580.67 124.65 580.34 126.3 580 128 C579.34 128 578.68 128 578 128 C578 128.66 578 129.32 578 130 C577.34 130 576.68 130 576 130 C575.67 131.98 575.34 133.96 575 136 C574.34 136 573.68 136 573 136 C573 136.66 573 137.32 573 138 C572.34 138 571.68 138 571 138 C570.67 139.65 570.34 141.3 570 143 C569.34 143 568.68 143 568 143 C568 143.99 568 144.98 568 146 C567.34 146 566.68 146 566 146 C565.67 147.65 565.34 149.3 565 151 C564.34 151 563.68 151 563 151 C562.814375 151.86625 562.814375 151.86625 562.625 152.75 C561.99351176 155.02335767 561.11141809 156.9253529 560 159 C559.34 159 558.68 159 558 159 C558 160.32 558 161.64 558 163 C557.34 163.33 556.68 163.66 556 164 C555.855625 164.639375 555.71125 165.27875 555.5625 165.9375 C555 168 555 168 552 170 C550.78715124 173.05429073 550.78715124 173.05429073 550 176 C549.34 176 548.68 176 548 176 C547.690625 176.78375 547.38125 177.5675 547.0625 178.375 C546 181 546 181 545 183 C544.34 183 543.68 183 543 183 C542.87625 183.763125 542.7525 184.52625 542.625 185.3125 C542 188 542 188 540 191 C539.34 191 538.68 191 538 191 C537.67 192.65 537.34 194.3 537 196 C536.34 196 535.68 196 535 196 C535 196.99 535 197.98 535 199 C534.34 199 533.68 199 533 199 C532.67 200.65 532.34 202.3 532 204 C531.34 204 530.68 204 530 204 C529.87753906 204.57234375 529.75507812 205.1446875 529.62890625 205.734375 C528.97237132 208.09953191 528.06276488 210.07206797 526.9375 212.25 C526.57527344 212.95640625 526.21304688 213.6628125 525.83984375 214.390625 C525.56269531 214.92171875 525.28554688 215.4528125 525 216 C524.34 216 523.68 216 523 216 C522.896875 216.78375 522.79375 217.5675 522.6875 218.375 C522 221 522 221 519 223 C517.78715124 226.05429073 517.78715124 226.05429073 517 229 C516.34 229 515.68 229 515 229 C515 229.66 515 230.32 515 231 C514.34 231 513.68 231 513 231 C512.67 232.65 512.34 234.3 512 236 C511.34 236 510.68 236 510 236 C510 236.99 510 237.98 510 239 C509.34 239 508.68 239 508 239 C507.67 240.65 507.34 242.3 507 244 C506.34 244 505.68 244 505 244 C505 244.99 505 245.98 505 247 C504.34 247 503.68 247 503 247 C502.67 248.65 502.34 250.3 502 252 C501.34 252 500.68 252 500 252 C500 253.32 500 254.64 500 256 C499.01 256.495 499.01 256.495 498 257 C497.505 257.845625 497.01 258.69125 496.5 259.5625 C495.7575 260.7690625 495.7575 260.7690625 495 262 C494.34 262 493.68 262 493 262 C492.67 264.31 492.34 266.62 492 269 C491.34 269 490.68 269 490 269 C490 269.66 490 270.32 490 271 C489.34 271 488.68 271 488 271 C487.67 272.65 487.34 274.3 487 276 C486.34 276 485.68 276 485 276 C485 276.99 485 277.98 485 279 C484.34 279 483.68 279 483 279 C482.67 280.65 482.34 282.3 482 284 C481.34 284 480.68 284 480 284 C480 284.99 480 285.98 480 287 C479.34 287 478.68 287 478 287 C477.67 288.65 477.34 290.3 477 292 C476.34 292 475.68 292 475 292 C475 292.99 475 293.98 475 295 C474.34 295 473.68 295 473 295 C472.67 296.65 472.34 298.3 472 300 C471.34 300 470.68 300 470 300 C469.80664062 300.63808594 469.61328125 301.27617188 469.4140625 301.93359375 C469.02347656 303.17302734 469.02347656 303.17302734 468.625 304.4375 C468.24214844 305.67306641 468.24214844 305.67306641 467.8515625 306.93359375 C467 309 467 309 465 310 C464.505 310.845625 464.01 311.69125 463.5 312.5625 C462.7575 313.7690625 462.7575 313.7690625 462 315 C461.34 315 460.68 315 460 315 C459.87625 315.928125 459.7525 316.85625 459.625 317.8125 C459 321 459 321 457 324 C456.34 324 455.68 324 455 324 C454.87625 324.5775 454.7525 325.155 454.625 325.75 C453.99351176 328.02335767 453.11141809 329.9253529 452 332 C451.34 332 450.68 332 450 332 C449.67 333.65 449.34 335.3 449 337 C448.34 337 447.68 337 447 337 C447 337.99 447 338.98 447 340 C446.34 340 445.68 340 445 340 C444.67 341.65 444.34 343.3 444 345 C443.34 345 442.68 345 442 345 C442 345.99 442 346.98 442 348 C441.34 348 440.68 348 440 348 C439.67 349.65 439.34 351.3 439 353 C438.34 353 437.68 353 437 353 C437 353.66 437 354.32 437 355 C436.34 355 435.68 355 435 355 C434.9175 355.94875 434.835 356.8975 434.75 357.875 C434.5025 358.90625 434.255 359.9375 434 361 C432.68352881 361.69937532 431.34977849 362.36729133 430 363 C429.18828772 365.55519921 429.18828772 365.55519921 429 368 C428.34 368 427.68 368 427 368 C427 369.32 427 370.64 427 372 C426.34 372 425.68 372 425 372 C424.67 373.65 424.34 375.3 424 377 C423.34 377 422.68 377 422 377 C422 377.99 422 378.98 422 380 C421.34 380 420.68 380 420 380 C419.67 381.65 419.34 383.3 419 385 C418.34 385 417.68 385 417 385 C417 385.99 417 386.98 417 388 C416.34 388 415.68 388 415 388 C414.67 389.65 414.34 391.3 414 393 C413.34 393 412.68 393 412 393 C412 393.66 412 394.32 412 395 C411.34 395 410.68 395 410 395 C409.9175 395.94875 409.835 396.8975 409.75 397.875 C409.5025 398.90625 409.255 399.9375 409 401 C407.68352881 401.69937532 406.34977849 402.36729133 405 403 C404.18828772 405.55519921 404.18828772 405.55519921 404 408 C403.34 408 402.68 408 402 408 C401.87625 408.5775 401.7525 409.155 401.625 409.75 C400.99351176 412.02335767 400.11141809 413.9253529 399 416 C398.34 416 397.68 416 397 416 C397 417.32 397 418.64 397 420 C396.01 420.495 396.01 420.495 395 421 C394.835 421.66 394.67 422.32 394.5 423 C394.335 423.66 394.17 424.32 394 425 C393.01 425.495 393.01 425.495 392 426 C390.94647157 428.30965848 389.94280904 430.6429774 389 433 C388.34 433 387.68 433 387 433 C386.690625 433.78375 386.38125 434.5675 386.0625 435.375 C385 438 385 438 384 440 C383.34 440 382.68 440 382 440 C381.67 441.98 381.34 443.96 381 446 C380.34 446 379.68 446 379 446 C379 446.66 379 447.32 379 448 C378.34 448 377.68 448 377 448 C376.67 449.65 376.34 451.3 376 453 C375.34 453 374.68 453 374 453 C374 453.99 374 454.98 374 456 C373.34 456 372.68 456 372 456 C371.67 457.65 371.34 459.3 371 461 C370.34 461 369.68 461 369 461 C368.81630859 461.85851562 368.81630859 461.85851562 368.62890625 462.734375 C367.97237132 465.09953191 367.06276488 467.07206797 365.9375 469.25 C365.57527344 469.95640625 365.21304688 470.6628125 364.83984375 471.390625 C364.56269531 471.92171875 364.28554688 472.4528125 364 473 C363.34 473 362.68 473 362 473 C361.896875 473.78375 361.79375 474.5675 361.6875 475.375 C361 478 361 478 358 480 C356.78715124 483.05429073 356.78715124 483.05429073 356 486 C355.34 486 354.68 486 354 486 C354 486.66 354 487.32 354 488 C353.34 488 352.68 488 352 488 C351.67 489.65 351.34 491.3 351 493 C350.34 493 349.68 493 349 493 C349 493.99 349 494.98 349 496 C348.34 496 347.68 496 347 496 C346.67 497.65 346.34 499.3 346 501 C345.34 501 344.68 501 344 501 C344 501.99 344 502.98 344 504 C343.34 504 342.68 504 342 504 C341.67 505.65 341.34 507.3 341 509 C340.34 509 339.68 509 339 509 C339 510.32 339 511.64 339 513 C338.34 513.33 337.68 513.66 337 514 C336.505 514.845625 336.01 515.69125 335.5 516.5625 C335.005 517.366875 334.51 518.17125 334 519 C333.34 519 332.68 519 332 519 C331.67 521.31 331.34 523.62 331 526 C330.34 526 329.68 526 329 526 C329 526.66 329 527.32 329 528 C328.34 528 327.68 528 327 528 C326.67 529.65 326.34 531.3 326 533 C325.34 533 324.68 533 324 533 C324 533.99 324 534.98 324 536 C323.34 536 322.68 536 322 536 C321.67 537.65 321.34 539.3 321 541 C320.34 541 319.68 541 319 541 C318.87625 541.5775 318.7525 542.155 318.625 542.75 C317.99351176 545.02335767 317.11141809 546.9253529 316 549 C315.34 549 314.68 549 314 549 C313.67 550.65 313.34 552.3 313 554 C312.34 554 311.68 554 311 554 C311 554.99 311 555.98 311 557 C310.34 557 309.68 557 309 557 C308.67 558.65 308.34 560.3 308 562 C307.34 562 306.68 562 306 562 C306 563.32 306 564.64 306 566 C305.34 566.33 304.68 566.66 304 567 C303.505 567.845625 303.01 568.69125 302.5 569.5625 C302.005 570.366875 301.51 571.17125 301 572 C300.34 572 299.68 572 299 572 C298.67 574.31 298.34 576.62 298 579 C297.34 579 296.68 579 296 579 C296 579.66 296 580.32 296 581 C295.34 581 294.68 581 294 581 C293.67 582.65 293.34 584.3 293 586 C292.34 586 291.68 586 291 586 C291 586.99 291 587.98 291 589 C290.34 589 289.68 589 289 589 C288.67 590.65 288.34 592.3 288 594 C287.34 594 286.68 594 286 594 C286 594.99 286 595.98 286 597 C285.34 597 284.68 597 284 597 C283.67 598.65 283.34 600.3 283 602 C282.34 602 281.68 602 281 602 C280.87625 602.5775 280.7525 603.155 280.625 603.75 C279.99351176 606.02335767 279.11141809 607.9253529 278 610 C277.34 610 276.68 610 276 610 C276 610.66 276 611.32 276 612 C275.34 612 274.68 612 274 612 C273.67 614.31 273.34 616.62 273 619 C271.68 619.33 270.36 619.66 269 620 C268.67 621.65 268.34 623.3 268 625 C267.34 625 266.68 625 266 625 C266 626.32 266 627.64 266 629 C265.34 629 264.68 629 264 629 C263.67 630.65 263.34 632.3 263 634 C262.34 634 261.68 634 261 634 C261 634.99 261 635.98 261 637 C260.34 637 259.68 637 259 637 C258.67 638.65 258.34 640.3 258 642 C257.34 642 256.68 642 256 642 C256 642.99 256 643.98 256 645 C255.34 645 254.68 645 254 645 C253.67 646.65 253.34 648.3 253 650 C252.34 650 251.68 650 251 650 C251 650.66 251 651.32 251 652 C250.34 652 249.68 652 249 652 C248.9175 652.94875 248.835 653.8975 248.75 654.875 C248.37875 656.421875 248.37875 656.421875 248 658 C246.68352881 658.69937532 245.34977849 659.36729133 244 660 C243.18828772 662.55519921 243.18828772 662.55519921 243 665 C242.34 665 241.68 665 241 665 C240.9071875 665.99 240.9071875 665.99 240.8125 667 C239.69621505 671.1216675 237.66238434 674.65750502 235 678 C234.34 678 233.68 678 233 678 C233 679.32 233 680.64 233 682 C232.34 682 231.68 682 231 682 C230.67 683.65 230.34 685.3 230 687 C229.34 687 228.68 687 228 687 C228 687.99 228 688.98 228 690 C227.34 690 226.68 690 226 690 C225.67 691.65 225.34 693.3 225 695 C224.34 695 223.68 695 223 695 C223 695.99 223 696.98 223 698 C222.34 698 221.68 698 221 698 C220.67 699.65 220.34 701.3 220 703 C219.34 703 218.68 703 218 703 C218 703.66 218 704.32 218 705 C217.34 705 216.68 705 216 705 C215.9175 705.94875 215.835 706.8975 215.75 707.875 C215.37875 709.421875 215.37875 709.421875 215 711 C213.68352881 711.69937532 212.34977849 712.36729133 211 713 C210.18828772 715.55519921 210.18828772 715.55519921 210 718 C209.34 718 208.68 718 208 718 C208 719.32 208 720.64 208 722 C207.34 722 206.68 722 206 722 C205.87625 722.5775 205.7525 723.155 205.625 723.75 C204.99351176 726.02335767 204.11141809 727.9253529 203 730 C202.34 730 201.68 730 201 730 C200.938125 730.78375 200.87625 731.5675 200.8125 732.375 C200 735 200 735 197.5625 736.375 C195 737 195 737 193 736 C193 735.01 193 734.02 193 733 C192.34 733 191.68 733 191 733 C190.67 731.35 190.34 729.7 190 728 C189.34 728 188.68 728 188 728 C188 727.01 188 726.02 188 725 C187.34 725 186.68 725 186 725 C185.67 723.35 185.34 721.7 185 720 C184.34 720 183.68 720 183 720 C180.95830515 717.09451118 180 715.59857954 180 712 C179.34 712 178.68 712 178 712 C175 707.61538462 175 707.61538462 175 705 C174.34 705 173.68 705 173 705 C172.54625 703.865625 172.0925 702.73125 171.625 701.5625 C170.42904194 697.95278308 170.42904194 697.95278308 168 697 C167.66666667 695.66666667 167.33333333 694.33333333 167 693 C166.34 692.67 165.68 692.34 165 692 C165 690.68 165 689.36 165 688 C164.34 688 163.68 688 163 688 C162.67 686.35 162.34 684.7 162 683 C161.34 683 160.68 683 160 683 C160 682.01 160 681.02 160 680 C159.34 680 158.68 680 158 680 C157.67 678.35 157.34 676.7 157 675 C156.34 675 155.68 675 155 675 C155 674.01 155 673.02 155 672 C154.34 672 153.68 672 153 672 C152.67 670.35 152.34 668.7 152 667 C151.34 667 150.68 667 150 667 C150 666.34 150 665.68 150 665 C149.34 665 148.68 665 148 665 C147.67 663.02 147.34 661.04 147 659 C146.34 659 145.68 659 145 659 C145 658.34 145 657.68 145 657 C144.34 657 143.68 657 143 657 C142.67 655.35 142.34 653.7 142 652 C141.34 652 140.68 652 140 652 C140 651.01 140 650.02 140 649 C139.34 649 138.68 649 138 649 C137.87625 648.360625 137.7525 647.72125 137.625 647.0625 C137.41875 646.381875 137.2125 645.70125 137 645 C136.34 644.67 135.68 644.34 135 644 C135 642.68 135 641.36 135 640 C134.01 639.67 133.02 639.34 132 639 C132 637.68 132 636.36 132 635 C131.34 635 130.68 635 130 635 C130 634.01 130 633.02 130 632 C129.34 632 128.68 632 128 632 C127.67 630.35 127.34 628.7 127 627 C126.34 627 125.68 627 125 627 C125 626.34 125 625.68 125 625 C124.34 625 123.68 625 123 625 C122.67 623.35 122.34 621.7 122 620 C121.34 620 120.68 620 120 620 C120 619.01 120 618.02 120 617 C119.34 617 118.68 617 118 617 C117.67 615.35 117.34 613.7 117 612 C116.34 612 115.68 612 115 612 C115 611.01 115 610.02 115 609 C114.34 609 113.68 609 113 609 C112.67 607.35 112.34 605.7 112 604 C111.34 604 110.68 604 110 604 C107.95830515 601.09451118 107 599.59857954 107 596 C106.34 596 105.68 596 105 596 C102.56839395 592.63316085 102 591.26649636 102 587 C101.01 586.67 100.02 586.34 99 586 C97.17578125 583.34765625 97.17578125 583.34765625 95.3125 580.0625 C94.68988281 578.98097656 94.06726563 577.89945313 93.42578125 576.78515625 C92 574 92 574 92 572 C91.34 572 90.68 572 90 572 C89.67 570.35 89.34 568.7 89 567 C88.34 567 87.68 567 87 567 C87 566.01 87 565.02 87 564 C86.34 564 85.68 564 85 564 C84.67 562.35 84.34 560.7 84 559 C83.34 559 82.68 559 82 559 C82 558.01 82 557.02 82 556 C81.34 556 80.68 556 80 556 C79.67 554.35 79.34 552.7 79 551 C78.34 551 77.68 551 77 551 C77 549.68 77 548.36 77 547 C76.01 546.67 75.02 546.34 74 546 C73.30062468 544.68352881 72.63270867 543.34977849 72 542 C71.34 541.67 70.68 541.34 70 541 C69.87625 539.865625 69.7525 538.73125 69.625 537.5625 C69.41875 536.386875 69.2125 535.21125 69 534 C67.13355094 532.81669817 67.13355094 532.81669817 65 532 C62.88942301 529.06026776 62 527.65351863 62 524 C61.34 524 60.68 524 60 524 C59.67 522.35 59.34 520.7 59 519 C58.34 519 57.68 519 57 519 C57 518.01 57 517.02 57 516 C56.34 516 55.68 516 55 516 C54.67 514.35 54.34 512.7 54 511 C53.34 511 52.68 511 52 511 C52 510.01 52 509.02 52 508 C51.34 508 50.68 508 50 508 C49.67 506.35 49.34 504.7 49 503 C48.34 503 47.68 503 47 503 C44.56839395 499.63316085 44 498.26649636 44 494 C43.360625 493.731875 42.72125 493.46375 42.0625 493.1875 C40 492 40 492 39 489 C38.34 488.67 37.68 488.34 37 488 C37 486.68 37 485.36 37 484 C36.34 484 35.68 484 35 484 C34.67 482.35 34.34 480.7 34 479 C33.34 479 32.68 479 32 479 C32 478.01 32 477.02 32 476 C31.34 476 30.68 476 30 476 C29.67 474.35 29.34 472.7 29 471 C28.34 471 27.68 471 27 471 C27 470.01 27 469.02 27 468 C26.34 468 25.68 468 25 468 C24.67 466.35 24.34 464.7 24 463 C23.34 463 22.68 463 22 463 C22 460.69 22 458.38 22 456 C22.66 456 23.32 456 24 456 C24.185625 455.13375 24.185625 455.13375 24.375 454.25 C25.00648824 451.97664233 25.88858191 450.0746471 27 448 C27.66 448 28.32 448 29 448 C30.07525194 445.34771188 31.09456151 442.71631546 32 440 C32.66 440 33.32 440 34 440 C34.33 438.35 34.66 436.7 35 435 C35.66 435 36.32 435 37 435 C37 434.34 37 433.68 37 433 C37.66 433 38.32 433 39 433 C39.33 431.02 39.66 429.04 40 427 C40.66 427 41.32 427 42 427 C42 426.34 42 425.68 42 425 C42.66 425 43.32 425 44 425 C44.33 423.35 44.66 421.7 45 420 C45.66 420 46.32 420 47 420 C47 419.01 47 418.02 47 417 C47.66 417 48.32 417 49 417 C49.33 415.35 49.66 413.7 50 412 C50.66 412 51.32 412 52 412 C52 410.68 52 409.36 52 408 C52.66 407.67 53.32 407.34 54 407 C54.65213292 404.97536745 54.65213292 404.97536745 55 403 C55.66 403 56.32 403 57 403 C57 402.01 57 401.02 57 400 C57.66 400 58.32 400 59 400 C59.33 398.35 59.66 396.7 60 395 C60.66 395 61.32 395 62 395 C62 394.34 62 393.68 62 393 C62.66 393 63.32 393 64 393 C64.33 391.02 64.66 389.04 65 387 C65.66 387 66.32 387 67 387 C67 386.34 67 385.68 67 385 C67.66 385 68.32 385 69 385 C69.33 383.35 69.66 381.7 70 380 C70.66 380 71.32 380 72 380 C72 379.01 72 378.02 72 377 C72.66 377 73.32 377 74 377 C74.33 375.35 74.66 373.7 75 372 C75.66 372 76.32 372 77 372 C77 370.68 77 369.36 77 368 C77.66 367.67 78.32 367.34 79 367 C80.05352843 364.69034152 81.05719096 362.3570226 82 360 C82.66 360 83.32 360 84 360 C84.33 358.35 84.66 356.7 85 355 C86.32 354.67 87.64 354.34 89 354 C89.33 352.35 89.66 350.7 90 349 C90.66 349 91.32 349 92 349 C92.12375 348.2575 92.2475 347.515 92.375 346.75 C92.95486701 344.19858515 93.73708739 342.2732427 95 340 C95.66 340 96.32 340 97 340 C97.12375 339.4225 97.2475 338.845 97.375 338.25 C98.00648824 335.97664233 98.88858191 334.0746471 100 332 C100.66 332 101.32 332 102 332 C102.33 330.35 102.66 328.7 103 327 C103.66 327 104.32 327 105 327 C105 326.01 105 325.02 105 324 C105.66 324 106.32 324 107 324 C107.33 322.35 107.66 320.7 108 319 C108.66 319 109.32 319 110 319 C110 317.68 110 316.36 110 315 C110.66 314.67 111.32 314.34 112 314 C112.495 313.154375 112.99 312.30875 113.5 311.4375 C114.2425 310.2309375 114.2425 310.2309375 115 309 C115.66 309 116.32 309 117 309 C117.33 306.69 117.66 304.38 118 302 C118.66 302 119.32 302 120 302 C120 301.34 120 300.68 120 300 C120.66 300 121.32 300 122 300 C122.12375 299.4225 122.2475 298.845 122.375 298.25 C123.00648824 295.97664233 123.88858191 294.0746471 125 292 C125.66 292 126.32 292 127 292 C127.33 290.35 127.66 288.7 128 287 C128.66 287 129.32 287 130 287 C130 286.01 130 285.02 130 284 C130.66 284 131.32 284 132 284 C132.33 282.35 132.66 280.7 133 279 C133.66 279 134.32 279 135 279 C135 278.01 135 277.02 135 276 C135.66 276 136.32 276 137 276 C137.33 274.35 137.66 272.7 138 271 C138.66 271 139.32 271 140 271 C140 270.34 140 269.68 140 269 C140.66 269 141.32 269 142 269 C142.33 266.69 142.66 264.38 143 262 C144.32 261.67 145.64 261.34 147 261 C147.33 259.35 147.66 257.7 148 256 C148.66 256 149.32 256 150 256 C150 254.68 150 253.36 150 252 C150.66 252 151.32 252 152 252 C152.33 250.35 152.66 248.7 153 247 C153.66 247 154.32 247 155 247 C155 246.01 155 245.02 155 244 C155.66 244 156.32 244 157 244 C157.33 242.35 157.66 240.7 158 239 C158.66 239 159.32 239 160 239 C160 238.01 160 237.02 160 236 C160.66 236 161.32 236 162 236 C162.33 234.35 162.66 232.7 163 231 C163.66 231 164.32 231 165 231 C165 230.34 165 229.68 165 229 C165.66 229 166.32 229 167 229 C167.33 227.02 167.66 225.04 168 223 C168.66 223 169.32 223 170 223 C170.309375 222.21625 170.61875 221.4325 170.9375 220.625 C172 218 172 218 173 216 C173.66 216 174.32 216 175 216 C175.0825 215.05125 175.165 214.1025 175.25 213.125 C175.62125 211.578125 175.62125 211.578125 176 210 C177.31647119 209.30062468 178.65022151 208.63270867 180 208 C180.81171228 205.44480079 180.81171228 205.44480079 181 203 C181.66 203 182.32 203 183 203 C183 201.68 183 200.36 183 199 C183.66 199 184.32 199 185 199 C185.33 197.35 185.66 195.7 186 194 C186.66 194 187.32 194 188 194 C188 193.01 188 192.02 188 191 C188.66 191 189.32 191 190 191 C190.33 189.35 190.66 187.7 191 186 C191.66 186 192.32 186 193 186 C193 185.01 193 184.02 193 183 C193.66 183 194.32 183 195 183 C195.33 181.35 195.66 179.7 196 178 C60.37 178 -75.26 178 -215 178 C-214.67 176.35 -214.34 174.7 -214 173 C-213.34 173 -212.68 173 -212 173 C-212 172.34 -212 171.68 -212 171 C-209.4385343 168.70351351 -208.52032428 168 -205 168 C-204.731875 167.360625 -204.46375 166.72125 -204.1875 166.0625 C-203 164 -203 164 -200 163 C-199.67 162.01 -199.34 161.02 -199 160 C-197.68 160 -196.36 160 -195 160 C-194.67 158.68 -194.34 157.36 -194 156 C-193.38125 155.9175 -192.7625 155.835 -192.125 155.75 C-189.81653196 155.21189267 -189.81653196 155.21189267 -189 153 C-188 151 -188 151 -185.875 150.25 C-185.25625 150.1675 -184.6375 150.085 -184 150 C-184 149.34 -184 148.68 -184 148 C-183.34 148 -182.68 148 -182 148 C-182 147.34 -182 146.68 -182 146 C-180.625 144.375 -180.625 144.375 -179 143 C-178.34 143 -177.68 143 -177 143 C-177 142.34 -177 141.68 -177 141 C-175.35 140.67 -173.7 140.34 -172 140 C-172 139.34 -172 138.68 -172 138 C-171.34 138 -170.68 138 -170 138 C-169.67 137.01 -169.34 136.02 -169 135 C-168.34 135 -167.68 135 -167 135 C-167 134.34 -167 133.68 -167 133 C-166.34 133 -165.68 133 -165 133 C-165 132.34 -165 131.68 -165 131 C-163.35 130.67 -161.7 130.34 -160 130 C-159.67 128.68 -159.34 127.36 -159 126 C-158.38125 125.9175 -157.7625 125.835 -157.125 125.75 C-154.82027141 125.20605562 -154.82027141 125.20605562 -153.9375 123 C-153.628125 122.34 -153.31875 121.68 -153 121 C-152.01 120.67 -151.02 120.34 -150 120 C-149.67 119.34 -149.34 118.68 -149 118 C-148.34 118 -147.68 118 -147 118 C-147 117.34 -147 116.68 -147 116 C-144.76530937 113.29484818 -142.069454 111.65278292 -139 110 C-138.34 110 -137.68 110 -137 110 C-136.731875 109.360625 -136.46375 108.72125 -136.1875 108.0625 C-135 106 -135 106 -132 105 C-132 104.34 -132 103.68 -132 103 C-131.01 103 -130.02 103 -129 103 C-129 102.34 -129 101.68 -129 101 C-124.52941176 97 -124.52941176 97 -122 97 C-121.731875 96.360625 -121.46375 95.72125 -121.1875 95.0625 C-120 93 -120 93 -117 92 C-116.67 91.34 -116.34 90.68 -116 90 C-115.34 90 -114.68 90 -114 90 C-114 89.34 -114 88.68 -114 88 C-112.75 86.375 -112.75 86.375 -111 85 C-109.68 85 -108.36 85 -107 85 C-106.505 83.515 -106.505 83.515 -106 82 C-105.34 82 -104.68 82 -104 82 C-104 81.34 -104 80.68 -104 80 C-103.34 80 -102.68 80 -102 80 C-101.505 78.515 -101.505 78.515 -101 77 C-100.34 77 -99.68 77 -99 77 C-99 76.34 -99 75.68 -99 75 C-98.01 75 -97.02 75 -96 75 C-96 74.34 -96 73.68 -96 73 C-94.68 72.67 -93.36 72.34 -92 72 C-91.505 70.02 -91.505 70.02 -91 68 C-89.68 67.67 -88.36 67.34 -87 67 C-87 66.34 -87 65.68 -87 65 C-86.01 65 -85.02 65 -84 65 C-84 64.34 -84 63.68 -84 63 C-82.625 61.375 -82.625 61.375 -81 60 C-80.34 60 -79.68 60 -79 60 C-79 59.34 -79 58.68 -79 58 C-76.525 57.505 -76.525 57.505 -74 57 C-74 56.34 -74 55.68 -74 55 C-73.34 55 -72.68 55 -72 55 C-71.67 54.01 -71.34 53.02 -71 52 C-70.34 52 -69.68 52 -69 52 C-69 51.34 -69 50.68 -69 50 C-68.34 50 -67.68 50 -67 50 C-66.67 49.01 -66.34 48.02 -66 47 C-64.66666667 46.33333333 -63.33333333 45.66666667 -62 45 C-59.69224095 42.80481456 -57.50073979 40.55851746 -55.375 38.1875 C-54 37 -54 37 -51 37 C-51 36.34 -51 35.68 -51 35 C-49.625 33.375 -49.625 33.375 -48 32 C-47.34 32 -46.68 32 -46 32 C-46 31.34 -46 30.68 -46 30 C-44.35 29.67 -42.7 29.34 -41 29 C-41 28.34 -41 27.68 -41 27 C-40.34 27 -39.68 27 -39 27 C-38.67 26.01 -38.34 25.02 -38 24 C-37.34 24 -36.68 24 -36 24 C-36 23.34 -36 22.68 -36 22 C-35.34 22 -34.68 22 -34 22 C-33.67 21.01 -33.34 20.02 -33 19 C-31.68 19 -30.36 19 -29 19 C-28.67 17.68 -28.34 16.36 -28 15 C-27.071875 14.87625 -27.071875 14.87625 -26.125 14.75 C-23.82027141 14.20605562 -23.82027141 14.20605562 -22.9375 12 C-22.628125 11.34 -22.31875 10.68 -22 10 C-21.01 9.67 -20.02 9.34 -19 9 C-18.67 8.34 -18.34 7.68 -18 7 C-17.34 7 -16.68 7 -16 7 C-16 6.34 -16 5.68 -16 5 C-14.625 3.375 -14.625 3.375 -13 2 C-12.34 2 -11.68 2 -11 2 C-11 1.34 -11 0.68 -11 0 C-6.94952424 -1.35015859 -4.2079832 -0.62084998 0 0 Z " fill="#0B0992" transform="translate(485,391)"/>
<path d="M0 0 C4.29 0 8.58 0 13 0 C13 0.66 13 1.32 13 2 C14.21236328 1.98259766 14.21236328 1.98259766 15.44921875 1.96484375 C16.51785156 1.95582031 17.58648438 1.94679688 18.6875 1.9375 C19.74324219 1.92589844 20.79898438 1.91429687 21.88671875 1.90234375 C24.72410262 1.99134575 27.2438919 2.35060162 30 3 C30 3.66 30 4.32 30 5 C30.99 5 31.98 5 33 5 C33 5.66 33 6.32 33 7 C35.475 7.495 35.475 7.495 38 8 C38 8.66 38 9.32 38 10 C38.66 10 39.32 10 40 10 C40 10.99 40 11.98 40 13 C40.66 13 41.32 13 42 13 C42.495 15.475 42.495 15.475 43 18 C43.66 18 44.32 18 45 18 C45 20.31 45 22.62 45 25 C45.66 25 46.32 25 47 25 C47.33 67.57 47.66 110.14 48 154 C48.66 154 49.32 154 50 154 C50 156.31 50 158.62 50 161 C50.66 161 51.32 161 52 161 C55 167.625 55 167.625 55 171 C55.66 171 56.32 171 57 171 C57.0825 171.78375 57.165 172.5675 57.25 173.375 C57.70849401 176.1446618 57.70849401 176.1446618 60 177.125 C60.66 177.41375 61.32 177.7025 62 178 C62.33 178.99 62.66 179.98 63 181 C64.65 181.33 66.3 181.66 68 182 C68 182.66 68 183.32 68 184 C68.99 184 69.98 184 71 184 C71 184.66 71 185.32 71 186 C74.3 186.33 77.6 186.66 81 187 C81 187.66 81 188.32 81 189 C84.96 189 88.92 189 93 189 C93 189.66 93 190.32 93 191 C95.64 191 98.28 191 101 191 C101 190.34 101 189.68 101 189 C105.62 189 110.24 189 115 189 C115 188.34 115 187.68 115 187 C118.3 186.67 121.6 186.34 125 186 C125 185.34 125 184.68 125 184 C125.99 184 126.98 184 128 184 C128 183.34 128 182.68 128 182 C129.65 181.67 131.3 181.34 133 181 C133 180.34 133 179.68 133 179 C133.66 179 134.32 179 135 179 C135.33 178.01 135.66 177.02 136 176 C136.66 176 137.32 176 138 176 C138 174.68 138 173.36 138 172 C138.66 171.67 139.32 171.34 140 171 C141.05352843 168.69034152 142.05719096 166.3570226 143 164 C143.66 164 144.32 164 145 164 C145.33 161.36 145.66 158.72 146 156 C146.66 156 147.32 156 148 156 C148.00331015 155.23062733 148.00662029 154.46125465 148.01003075 153.66856766 C148.09121373 134.95715774 148.18329071 116.24583055 148.28752708 97.53453445 C148.33767146 88.48593083 148.38411417 79.43733635 148.421875 70.38867188 C148.45479263 62.50283086 148.49462257 54.61706042 148.54279006 46.73129725 C148.56805733 42.55497077 148.58983794 38.37869111 148.60334396 34.20230865 C148.61616225 30.27233853 148.6382141 26.34252899 148.66738319 22.41264725 C148.67646079 20.96949371 148.68214963 19.52631431 148.68421364 18.0831337 C148.6875347 16.1139187 148.70418559 14.14473958 148.7215271 12.17559814 C148.72705786 11.07313374 148.73258862 9.97066933 148.73828697 8.83479691 C148.99922206 6.00842638 149.47514886 4.36862804 151 2 C154.38762084 -0.47078768 157.66816344 -0.20663673 161.75 -0.125 C162.92046875 -0.10695313 164.0909375 -0.08890625 165.296875 -0.0703125 C166.63492188 -0.03550781 166.63492188 -0.03550781 168 0 C168 0.66 168 1.32 168 2 C168.66386719 1.98839844 169.32773437 1.97679687 170.01171875 1.96484375 C178.78207381 1.87521968 178.78207381 1.87521968 183 3 C183 3.66 183 4.32 183 5 C183.99 5 184.98 5 186 5 C186 5.66 186 6.32 186 7 C187.65 7.33 189.3 7.66 191 8 C191 8.66 191 9.32 191 10 C191.66 10 192.32 10 193 10 C194.625 11.25 194.625 11.25 196 13 C196 14.32 196 15.64 196 17 C196.66 17 197.32 17 198 17 C198.13277344 17.99902344 198.26554688 18.99804688 198.40234375 20.02734375 C198.66724609 21.96287109 198.66724609 21.96287109 198.9375 23.9375 C199.11152344 25.22527344 199.28554688 26.51304688 199.46484375 27.83984375 C199.66162423 30.85466313 199.66162423 30.85466313 201 32 C201.09571971 33.49283798 201.12188227 34.99019655 201.12025452 36.48609924 C201.12231651 37.93960281 201.12231651 37.93960281 201.12442017 39.42247009 C201.12082489 40.49420975 201.11722961 41.5659494 201.11352539 42.67016602 C201.11367142 43.79197266 201.11381744 44.9137793 201.1139679 46.06958008 C201.1132682 49.79770811 201.10547315 53.52578689 201.09765625 57.25390625 C201.09579227 59.83080518 201.09436827 62.40770447 201.09336853 64.98460388 C201.08993342 71.08675115 201.0820426 77.18887794 201.07201904 83.29101747 C201.06085689 90.2364925 201.0553472 97.18196835 201.05032361 104.12745011 C201.03985996 118.41830966 201.02226115 132.7091542 201 147 C200.34 147 199.68 147 199 147 C199.01160156 147.92941406 199.02320313 148.85882812 199.03515625 149.81640625 C199.09833547 158.47195911 198.99656023 165.80940205 196 174 C195.34 174 194.68 174 194 174 C193.67 176.64 193.34 179.28 193 182 C192.34 182 191.68 182 191 182 C191 183.32 191 184.64 191 186 C190.34 186 189.68 186 189 186 C188.67 187.98 188.34 189.96 188 192 C187.34 192 186.68 192 186 192 C186 192.66 186 193.32 186 194 C185.34 194 184.68 194 184 194 C183.9690625 195.051875 183.9690625 195.051875 183.9375 196.125 C182.57055044 200.31697864 179.60930412 202.57434757 176 205 C175.34 205 174.68 205 174 205 C173.67 206.32 173.34 207.64 173 209 C171.35 209.33 169.7 209.66 168 210 C168 210.66 168 211.32 168 212 C167.34 212 166.68 212 166 212 C166 212.66 166 213.32 166 214 C164.35 214.33 162.7 214.66 161 215 C161 215.66 161 216.32 161 217 C154.375 220 154.375 220 151 220 C151 220.66 151 221.32 151 222 C149.35 222 147.7 222 146 222 C146 222.66 146 223.32 146 224 C145.21753906 224.13277344 144.43507813 224.26554687 143.62890625 224.40234375 C142.61699219 224.57894531 141.60507812 224.75554687 140.5625 224.9375 C139.55316406 225.11152344 138.54382813 225.28554687 137.50390625 225.46484375 C135.0712562 225.74751097 135.0712562 225.74751097 134 227 C131.32941149 227.14115161 128.67567762 227.04247107 126 227 C126 227.66 126 228.32 126 229 C107.26016919 230.26742817 88.73983081 230.26742817 70 229 C70 228.34 70 227.68 70 227 C67.36 227 64.72 227 62 227 C62 226.34 62 225.68 62 225 C60.948125 225.020625 59.89625 225.04125 58.8125 225.0625 C55.67295096 225.01103198 53.03116604 224.73482813 50 224 C50 223.34 50 222.68 50 222 C48.35 222 46.7 222 45 222 C45 221.34 45 220.68 45 220 C42.69 219.67 40.38 219.34 38 219 C38 218.34 38 217.68 38 217 C37.01 217 36.02 217 35 217 C35 216.34 35 215.68 35 215 C33.35 214.67 31.7 214.34 30 214 C30 213.34 30 212.68 30 212 C29.01 212 28.02 212 27 212 C27 211.34 27 210.68 27 210 C25.68 209.67 24.36 209.34 23 209 C22.505 207.02 22.505 207.02 22 205 C21.40703125 204.90460938 20.8140625 204.80921875 20.203125 204.7109375 C17.52578707 203.84697384 16.54056472 202.76825171 14.75 200.625 C13.96882812 199.71621094 13.96882812 199.71621094 13.171875 198.7890625 C12 197 12 197 12 194 C11.34 194 10.68 194 10 194 C7.95830515 191.09451118 7 189.59857954 7 186 C6.34 186 5.68 186 5 186 C2.56574762 181.03006806 1.65384002 177.65394631 2 172 C1.34 172 0.68 172 0 172 C-2.46177642 161.59012853 -3.42612718 151.88275498 -3.34057617 141.16040039 C-3.33972723 139.64096595 -3.34021024 138.12153029 -3.34190369 136.60209656 C-3.34275465 132.52862309 -3.32527704 128.45542166 -3.30418181 124.3820107 C-3.28526275 120.1059609 -3.2836527 115.82990295 -3.28010559 111.55381775 C-3.27082941 103.47941745 -3.24627645 95.40514088 -3.21605712 87.33079475 C-3.18237418 78.1287048 -3.16599238 68.92660854 -3.15097082 59.72447217 C-3.11972226 40.81624496 -3.06704917 21.90813248 -3 3 C-2.01 2.67 -1.02 2.34 0 2 C0 1.34 0 0.68 0 0 Z " fill="#000000" transform="translate(658,1247)"/>
<path d="M0 0 C8.58 0 17.16 0 26 0 C26 0.66 26 1.32 26 2 C26.66386719 1.98839844 27.32773437 1.97679687 28.01171875 1.96484375 C36.78207381 1.87521968 36.78207381 1.87521968 41 3 C41 3.66 41 4.32 41 5 C42.65 5 44.3 5 46 5 C46 5.66 46 6.32 46 7 C46.99 7.33 47.98 7.66 49 8 C49 8.66 49 9.32 49 10 C50.32 10 51.64 10 53 10 C53.33 11.65 53.66 13.3 54 15 C54.66 15 55.32 15 56 15 C56 15.66 56 16.32 56 17 C56.66 17 57.32 17 58 17 C58.33 18.65 58.66 20.3 59 22 C59.66 22 60.32 22 61 22 C61 22.99 61 23.98 61 25 C61.66 25 62.32 25 63 25 C64.0063655 27.43504509 65.00526413 29.87270864 66 32.3125 C66.28617188 33.00279297 66.57234375 33.69308594 66.8671875 34.40429688 C68.08910744 37.41545674 69 39.71886984 69 43 C69.66 43 70.32 43 71 43 C71 44.65 71 46.3 71 48 C71.66 48 72.32 48 73 48 C73.33 50.31 73.66 52.62 74 55 C74.66 55 75.32 55 76 55 C76 56.65 76 58.3 76 60 C76.66 60 77.32 60 78 60 C78.33 61.98 78.66 63.96 79 66 C79.66 66 80.32 66 81 66 C81.50559908 67.43554025 82.0042749 68.8735202 82.5 70.3125 C82.91765625 71.51326172 82.91765625 71.51326172 83.34375 72.73828125 C84 75 84 75 84 78 C84.66 78 85.32 78 86 78 C86.50615298 79.26839526 87.00469099 80.53983102 87.5 81.8125 C87.91765625 82.87404297 87.91765625 82.87404297 88.34375 83.95703125 C89 86 89 86 89 89 C89.66 89 90.32 89 91 89 C94.42857143 96.28571429 94.42857143 96.28571429 94 101 C94.66 101 95.32 101 96 101 C99.42857143 108.28571429 99.42857143 108.28571429 99 113 C99.66 113 100.32 113 101 113 C101.33 114.98 101.66 116.96 102 119 C102.66 119 103.32 119 104 119 C104 120.65 104 122.3 104 124 C104.66 124 105.32 124 106 124 C106.33 126.31 106.66 128.62 107 131 C107.66 131 108.32 131 109 131 C109 131.99 109 132.98 109 134 C109.66 134 110.32 134 111 134 C111.33 136.97 111.66 139.94 112 143 C112.66 143 113.32 143 114 143 C114 143.99 114 144.98 114 146 C114.66 146 115.32 146 116 146 C116.33 148.64 116.66 151.28 117 154 C117.66 154 118.32 154 119 154 C119.50833591 155.24663331 120.00631145 156.49749387 120.5 157.75 C120.7784375 158.44609375 121.056875 159.1421875 121.34375 159.859375 C122 162 122 162 122 166 C122.66 166 123.32 166 124 166 C124 166.99 124 167.98 124 169 C124.66 169 125.32 169 126 169 C126.33 171.64 126.66 174.28 127 177 C127.66 177 128.32 177 129 177 C129 178.32 129 179.64 129 181 C129.66 181 130.32 181 131 181 C131.33 183.64 131.66 186.28 132 189 C132.66 189 133.32 189 134 189 C134 189.99 134 190.98 134 192 C134.66 192 135.32 192 136 192 C136.33 194.31 136.66 196.62 137 199 C137.66 199 138.32 199 139 199 C139 200.65 139 202.3 139 204 C139.66 204 140.32 204 141 204 C141.33 206.31 141.66 208.62 142 211 C142.66 211 143.32 211 144 211 C147.52529183 219.66634241 147.52529183 219.66634241 147 224 C145.40654227 225.59345773 143.75110043 225.12729991 141.54370117 225.12939453 C140.12168648 225.13412277 140.12168648 225.13412277 138.67094421 225.13894653 C137.12259636 225.13591019 137.12259636 225.13591019 135.54296875 225.1328125 C134.48846024 225.13376923 133.43395172 225.13472595 132.3474884 225.13571167 C130.1104832 225.13639382 127.87347604 225.13453713 125.63647461 225.13037109 C122.21268242 225.12503922 118.78902237 225.1303067 115.36523438 225.13671875 C113.19531221 225.13605766 111.02539013 225.13477587 108.85546875 225.1328125 C107.31622993 225.13584885 107.31622993 225.13584885 105.74589539 225.13894653 C104.78842911 225.13579437 103.83096283 225.13264221 102.84448242 225.12939453 C102.00366623 225.12859894 101.16285004 225.12780334 100.29655457 225.12698364 C98.06976356 225.00385744 96.13701713 224.61938126 94 224 C93.67 221.69 93.34 219.38 93 217 C92.34 217 91.68 217 91 217 C87.57142857 209.71428571 87.57142857 209.71428571 88 205 C87.34 205 86.68 205 86 205 C86 204.01 86 203.02 86 202 C85.34 202 84.68 202 84 202 C83.67 199.36 83.34 196.72 83 194 C82.34 194 81.68 194 81 194 C80.49166409 192.75336669 79.99368855 191.50250613 79.5 190.25 C79.2215625 189.55390625 78.943125 188.8578125 78.65625 188.140625 C78 186 78 186 78 182 C77.34 182 76.68 182 76 182 C76 181.01 76 180.02 76 179 C75.34 179 74.68 179 74 179 C73.67 176.36 73.34 173.72 73 171 C72.34 171 71.68 171 71 171 C71 170.34 71 169.68 71 169 C39.32 169 7.64 169 -25 169 C-25 169.99 -25 170.98 -25 172 C-25.66 172 -26.32 172 -27 172 C-27 173.32 -27 174.64 -27 176 C-27.66 176 -28.32 176 -29 176 C-29.495 179.96 -29.495 179.96 -30 184 C-30.66 184 -31.32 184 -32 184 C-32 185.65 -32 187.3 -32 189 C-32.66 189 -33.32 189 -34 189 C-34.11214844 189.85851563 -34.22429687 190.71703125 -34.33984375 191.6015625 C-35.02648164 195.1363256 -36.13294687 198.07603124 -37.5625 201.375 C-38.01753906 202.43460938 -38.47257812 203.49421875 -38.94140625 204.5859375 C-39.29074219 205.38257813 -39.64007813 206.17921875 -40 207 C-40.66 207 -41.32 207 -42 207 C-42 208.65 -42 210.3 -42 212 C-42.66 212 -43.32 212 -44 212 C-44.33 214.31 -44.66 216.62 -45 219 C-45.66 219 -46.32 219 -47 219 C-47 219.99 -47 220.98 -47 222 C-47.66 222 -48.32 222 -49 222 C-49.33 222.99 -49.66 223.98 -50 225 C-65.51 225 -81.02 225 -97 225 C-98.12130572 218.2721657 -97.53813297 216.88846848 -95 211 C-94.34 211 -93.68 211 -93 211 C-92.67 208.69 -92.34 206.38 -92 204 C-91.34 204 -90.68 204 -90 204 C-90 203.01 -90 202.02 -90 201 C-89.34 201 -88.68 201 -88 201 C-87.67 198.03 -87.34 195.06 -87 192 C-86.34 192 -85.68 192 -85 192 C-85 191.01 -85 190.02 -85 189 C-84.34 189 -83.68 189 -83 189 C-82.505 185.04 -82.505 185.04 -82 181 C-81.34 181 -80.68 181 -80 181 C-80 179.68 -80 178.36 -80 177 C-79.34 177 -78.68 177 -78 177 C-77.67 174.36 -77.34 171.72 -77 169 C-76.34 169 -75.68 169 -75 169 C-75 168.01 -75 167.02 -75 166 C-74.34 166 -73.68 166 -73 166 C-72.814375 164.14375 -72.814375 164.14375 -72.625 162.25 C-72.24253695 159.1237803 -71.69450477 156.71120763 -70 154 C-69.34 154 -68.68 154 -68 154 C-67.67 151.36 -67.34 148.72 -67 146 C-66.34 146 -65.68 146 -65 146 C-65 145.01 -65 144.02 -65 143 C-64.34 143 -63.68 143 -63 143 C-62.67 140.03 -62.34 137.06 -62 134 C-61.34 134 -60.68 134 -60 134 C-60 133.01 -60 132.02 -60 131 C-59.34 131 -58.68 131 -58 131 C-57.67 128.69 -57.34 126.38 -57 124 C-56.34 124 -55.68 124 -55 124 C-55 122.35 -55 120.7 -55 119 C-54.34 119 -53.68 119 -53 119 C-52.67 117.02 -52.34 115.04 -52 113 C-51.34 113 -50.68 113 -50 113 C-49.87625 111.948125 -49.7525 110.89625 -49.625 109.8125 C-49.08859218 106.54041229 -48.36119965 103.99463924 -47 101 C-46.34 101 -45.68 101 -45 101 C-44.87625 99.948125 -44.7525 98.89625 -44.625 97.8125 C-44.08859218 94.54041229 -43.36119965 91.99463924 -42 89 C-41.34 89 -40.68 89 -40 89 C-39.87625 87.9275 -39.7525 86.855 -39.625 85.75 C-39.10356064 82.62136385 -38.59911746 80.66519576 -37 78 C-36.34 78 -35.68 78 -35 78 C-34.67 75.36 -34.34 72.72 -34 70 C-33.34 70 -32.68 70 -32 70 C-32 68.68 -32 67.36 -32 66 C-31.34 66 -30.68 66 -30 66 C-29.67 63.36 -29.34 60.72 -29 58 C-28.34 58 -27.68 58 -27 58 C-27 57.01 -27 56.02 -27 55 C-26.34 55 -25.68 55 -25 55 C-24.67 52.69 -24.34 50.38 -24 48 C-23.34 48 -22.68 48 -22 48 C-22 46.35 -22 44.7 -22 43 C-21.34 43 -20.68 43 -20 43 C-19.67 40.69 -19.34 38.38 -19 36 C-18.34 36 -17.68 36 -17 36 C-17 34.35 -17 32.7 -17 31 C-16.34 31 -15.68 31 -15 31 C-14.67 29.02 -14.34 27.04 -14 25 C-13.34 25 -12.68 25 -12 25 C-12 23.35 -12 21.7 -12 20 C-11.34 20 -10.68 20 -10 20 C-9.67 17.69 -9.34 15.38 -9 13 C-8.34 13 -7.68 13 -7 13 C-7 12.01 -7 11.02 -7 10 C-6.34 10 -5.68 10 -5 10 C-4.67 7.36 -4.34 4.72 -4 2 C-2.68 2 -1.36 2 0 2 C0 1.34 0 0.68 0 0 Z M23 55 C23 55.99 23 56.98 23 58 C22.34 58 21.68 58 21 58 C20.75765625 58.68964844 20.5153125 59.37929687 20.265625 60.08984375 C18.3141259 65.561547 16.24013277 70.88218375 13.734375 76.125 C12.81765405 78.12994978 12.81765405 78.12994978 13 81 C12.34 81 11.68 81 11 81 C10.67 83.64 10.34 86.28 10 89 C9.34 89 8.68 89 8 89 C8 90.65 8 92.3 8 94 C7.34 94 6.68 94 6 94 C5.49440092 95.43554025 4.9957251 96.8735202 4.5 98.3125 C4.2215625 99.11300781 3.943125 99.91351562 3.65625 100.73828125 C2.86066893 103.08769422 2.86066893 103.08769422 3 106 C2.34 106 1.68 106 1 106 C0.67 108.64 0.34 111.28 0 114 C-0.66 114 -1.32 114 -2 114 C-2 115.32 -2 116.64 -2 118 C-2.66 118 -3.32 118 -4 118 C-4.33 120.64 -4.66 123.28 -5 126 C-5.66 126 -6.32 126 -7 126 C-7 127.65 -7 129.3 -7 131 C-7.66 131 -8.32 131 -9 131 C-9 131.99 -9 132.98 -9 134 C12.45 134 33.9 134 56 134 C56 132.35 56 130.7 56 129 C55.34 129 54.68 129 54 129 C53.9175 128.195625 53.835 127.39125 53.75 126.5625 C52.94458384 122.73677323 51.56450121 119.64831419 49.921875 116.125 C48.90388828 113.77845435 48.32728397 111.5364508 48 109 C47.34 109 46.68 109 46 109 C46 108.01 46 107.02 46 106 C45.34 106 44.68 106 44 106 C43.505 102.04 43.505 102.04 43 98 C42.34 98 41.68 98 41 98 C40.87625 97.319375 40.7525 96.63875 40.625 95.9375 C39.90899123 92.5722588 38.97054875 89.29986575 38 86 C37.34 86 36.68 86 36 86 C35.87625 85.319375 35.7525 84.63875 35.625 83.9375 C34.90899123 80.5722588 33.97054875 77.29986575 33 74 C32.34 74 31.68 74 31 74 C30.814375 72.948125 30.814375 72.948125 30.625 71.875 C29.96161655 68.82343613 29.02788045 65.94659062 28 63 C27.34 63 26.68 63 26 63 C25.505 59.04 25.505 59.04 25 55 C24.34 55 23.68 55 23 55 Z " fill="#000000" transform="translate(471,1247)"/>
<path d="M0 0 C8.25 0 16.5 0 25 0 C25 0.66 25 1.32 25 2 C25.66386719 1.98839844 26.32773438 1.97679687 27.01171875 1.96484375 C35.78207381 1.87521968 35.78207381 1.87521968 40 3 C40 3.66 40 4.32 40 5 C40.99 5 41.98 5 43 5 C43 5.66 43 6.32 43 7 C45.475 7.495 45.475 7.495 48 8 C48 8.66 48 9.32 48 10 C48.66 10 49.32 10 50 10 C50 10.66 50 11.32 50 12 C50.99 12.33 51.98 12.66 53 13 C53.69937532 14.31647119 54.36729133 15.65022151 55 17 C55.66 17.33 56.32 17.66 57 18 C57.40729228 20.32156597 57.74438677 22.6568787 58 25 C58.66 25 59.32 25 60 25 C60 25.99 60 26.98 60 28 C60.66 28 61.32 28 62 28 C62.495 32.95 62.495 32.95 63 38 C63.66 38 64.32 38 65 38 C68.42857143 46.42857143 68.42857143 46.42857143 68 51 C68.66 51 69.32 51 70 51 C70 52.32 70 53.64 70 55 C70.66 55 71.32 55 72 55 C72.495 59.95 72.495 59.95 73 65 C73.66 65 74.32 65 75 65 C75 65.99 75 66.98 75 68 C75.66 68 76.32 68 77 68 C77.495 71.96 77.495 71.96 78 76 C78.66 76 79.32 76 80 76 C80.24234375 76.82242187 80.4846875 77.64484375 80.734375 78.4921875 C82.62056207 84.77464137 84.63050522 90.86880614 87.265625 96.87890625 C88 99 88 99 88 103 C88.66 103 89.32 103 90 103 C90 104.65 90 106.3 90 108 C90.66 108 91.32 108 92 108 C92.495 111.96 92.495 111.96 93 116 C93.66 116 94.32 116 95 116 C95 117.65 95 119.3 95 121 C95.66 121 96.32 121 97 121 C97.495 124.96 97.495 124.96 98 129 C98.66 129 99.32 129 100 129 C100 130.65 100 132.3 100 134 C100.66 134 101.32 134 102 134 C102.495 138.455 102.495 138.455 103 143 C103.66 143 104.32 143 105 143 C108.42857143 151.42857143 108.42857143 151.42857143 108 156 C108.66 156 109.32 156 110 156 C113.42857143 164.42857143 113.42857143 164.42857143 113 169 C113.66 169 114.32 169 115 169 C115 169.99 115 170.98 115 172 C115.66 172 116.32 172 117 172 C117.495 168.04 117.495 168.04 118 164 C118.66 164 119.32 164 120 164 C120 162.35 120 160.7 120 159 C120.66 159 121.32 159 122 159 C122.495 155.04 122.495 155.04 123 151 C123.66 151 124.32 151 125 151 C125.185625 149.453125 125.185625 149.453125 125.375 147.875 C125.93889814 144.37883154 126.78682059 141.31602373 128 138 C128.66 138 129.32 138 130 138 C130.12375 136.80375 130.2475 135.6075 130.375 134.375 C130.82325054 130.72403187 131.70446837 127.45475101 133 124 C133.66 124 134.32 124 135 124 C135.33 121.36 135.66 118.72 136 116 C136.66 116 137.32 116 138 116 C138 114.35 138 112.7 138 111 C138.66 111 139.32 111 140 111 C140.33 108.36 140.66 105.72 141 103 C141.66 103 142.32 103 143 103 C143 101.35 143 99.7 143 98 C143.66 98 144.32 98 145 98 C145.0825 96.865625 145.165 95.73125 145.25 94.5625 C145.76420325 90.29763773 147.23926439 86.90563472 149.078125 83.0546875 C150.11816437 80.73663364 150.67506618 78.51823707 151 76 C151.66 76 152.32 76 153 76 C153 74.35 153 72.7 153 71 C153.66 71 154.32 71 155 71 C155.33 68.36 155.66 65.72 156 63 C156.66 63 157.32 63 158 63 C158 61.35 158 59.7 158 58 C158.66 58 159.32 58 160 58 C160.33 55.36 160.66 52.72 161 50 C161.66 50 162.32 50 163 50 C163 48.68 163 47.36 163 46 C163.66 46 164.32 46 165 46 C165.07347656 45.09507813 165.07347656 45.09507813 165.1484375 44.171875 C165.22320312 43.37265625 165.29796875 42.5734375 165.375 41.75 C165.47941406 40.56664062 165.47941406 40.56664062 165.5859375 39.359375 C166.01507113 36.914123 166.78600638 35.15163097 168 33 C168.66 33 169.32 33 170 33 C170.33 29.7 170.66 26.4 171 23 C171.66 23 172.32 23 173 23 C173 22.01 173 21.02 173 20 C173.66 20 174.32 20 175 20 C175.33 17.36 175.66 14.72 176 12 C176.66 12 177.32 12 178 12 C178 10.35 178 8.7 178 7 C178.66 7 179.32 7 180 7 C180.33 5.35 180.66 3.7 181 2 C182.65 2 184.3 2 186 2 C186 1.34 186 0.68 186 0 C199.2 0 212.4 0 226 0 C226 0.66 226 1.32 226 2 C226.99 2 227.98 2 229 2 C229.125 9.625 229.125 9.625 228 13 C227.34 13 226.68 13 226 13 C226 14.65 226 16.3 226 18 C225.34 18 224.68 18 224 18 C223.67 20.64 223.34 23.28 223 26 C222.34 26 221.68 26 221 26 C221 27.32 221 28.64 221 30 C220.34 30 219.68 30 219 30 C218.67 32.64 218.34 35.28 218 38 C217.34 38 216.68 38 216 38 C216 39.65 216 41.3 216 43 C215.34 43 214.68 43 214 43 C213.67 45.64 213.34 48.28 213 51 C212.34 51 211.68 51 211 51 C211 52.32 211 53.64 211 55 C210.34 55 209.68 55 209 55 C208.67 57.64 208.34 60.28 208 63 C207.34 63 206.68 63 206 63 C206 64.65 206 66.3 206 68 C205.34 68 204.68 68 204 68 C203.67 70.64 203.34 73.28 203 76 C202.34 76 201.68 76 201 76 C200.87625 76.680625 200.7525 77.36125 200.625 78.0625 C199.90899123 81.4277412 198.97054875 84.70013425 198 88 C197.34 88 196.68 88 196 88 C195.814375 89.546875 195.814375 89.546875 195.625 91.125 C195.06110186 94.62116846 194.21317941 97.68397627 193 101 C192.34 101 191.68 101 191 101 C190.87625 102.051875 190.7525 103.10375 190.625 104.1875 C190.08859218 107.45958771 189.36119965 110.00536076 188 113 C187.34 113 186.68 113 186 113 C185.814375 114.60875 185.814375 114.60875 185.625 116.25 C185.10356064 119.37863615 184.59911746 121.33480424 183 124 C182.34 124 181.68 124 181 124 C180.814375 125.8253125 180.814375 125.8253125 180.625 127.6875 C180.21108694 131.06479059 179.45426549 133.89756695 178 137 C177.34 137 176.68 137 176 137 C175.87625 138.2375 175.7525 139.475 175.625 140.75 C175.24253695 143.8762197 174.69450477 146.28879237 173 149 C172.34 149 171.68 149 171 149 C170.67 151.64 170.34 154.28 170 157 C169.34 157 168.68 157 168 157 C168 158.65 168 160.3 168 162 C167.34 162 166.68 162 166 162 C165.87625 163.2375 165.7525 164.475 165.625 165.75 C165.24253695 168.8762197 164.69450477 171.28879237 163 174 C162.34 174 161.68 174 161 174 C160.67 176.64 160.34 179.28 160 182 C159.34 182 158.68 182 158 182 C158 183.65 158 185.3 158 187 C157.34 187 156.68 187 156 187 C155.87625 188.2375 155.7525 189.475 155.625 190.75 C155.24253695 193.8762197 154.69450477 196.28879237 153 199 C152.34 199 151.68 199 151 199 C150.67 201.64 150.34 204.28 150 207 C149.34 207 148.68 207 148 207 C148 208.65 148 210.3 148 212 C147.34 212 146.68 212 146 212 C145.67 214.64 145.34 217.28 145 220 C144.34 220 143.68 220 143 220 C143 221.32 143 222.64 143 224 C140.46115401 225.26942299 138.68949709 225.12701165 135.84765625 225.12939453 C134.77314209 225.13254669 133.69862793 225.13569885 132.59155273 225.13894653 C131.42696533 225.1369223 130.26237793 225.13489807 129.0625 225.1328125 C127.27598022 225.13424759 127.27598022 225.13424759 125.45336914 225.13571167 C122.93147733 225.13639315 120.40958377 225.1345411 117.88769531 225.13037109 C114.01623616 225.12502243 110.14489302 225.13031721 106.2734375 225.13671875 C103.82812474 225.13605796 101.38281206 225.13477679 98.9375 225.1328125 C97.7729126 225.13483673 96.6083252 225.13686096 95.40844727 225.13894653 C94.33393311 225.13579437 93.25941895 225.13264221 92.15234375 225.12939453 C91.20351318 225.12859894 90.25468262 225.12780334 89.27709961 225.12698364 C87 225 87 225 85 224 C85 223.34 85 222.68 85 222 C84.34 222 83.68 222 83 222 C82.505 218.535 82.505 218.535 82 215 C81.34 215 80.68 215 80 215 C80 213.35 80 211.7 80 210 C79.34 210 78.68 210 78 210 C77.67 207.36 77.34 204.72 77 202 C76.34 202 75.68 202 75 202 C74.59007812 200.89140625 74.18015625 199.7828125 73.7578125 198.640625 C73.21365899 197.17703971 72.66938165 195.71350045 72.125 194.25 C71.85558594 193.52039062 71.58617187 192.79078125 71.30859375 192.0390625 C70.24076051 189.17414405 69.19548311 186.38582192 67.8125 183.65625 C66.70484219 181.39833216 66.8624609 179.47570374 67 177 C66.34 177 65.68 177 65 177 C62.84694043 173.14243493 61.60746746 170.44870215 62 166 C61.34 166 60.68 166 60 166 C59.49440092 164.56445975 58.9957251 163.1264798 58.5 161.6875 C58.2215625 160.88699219 57.943125 160.08648438 57.65625 159.26171875 C57 157 57 157 57 154 C56.34 154 55.68 154 55 154 C53.41744803 149.67435795 52.54855348 145.571279 52 141 C51.34 141 50.68 141 50 141 C49.49166409 139.75336669 48.99368855 138.50250613 48.5 137.25 C48.2215625 136.55390625 47.943125 135.8578125 47.65625 135.140625 C47 133 47 133 47 129 C46.34 129 45.68 129 45 129 C44.505 125.04 44.505 125.04 44 121 C43.34 121 42.68 121 42 121 C42 119.35 42 117.7 42 116 C41.34 116 40.68 116 40 116 C39.505 112.04 39.505 112.04 39 108 C38.34 108 37.68 108 37 108 C37 106.68 37 105.36 37 104 C36.34 104 35.68 104 35 104 C34.505 100.04 34.505 100.04 34 96 C33.34 96 32.68 96 32 96 C32 94.35 32 92.7 32 91 C31.34 91 30.68 91 30 91 C29.505 87.04 29.505 87.04 29 83 C28.34 83 27.68 83 27 83 C27 81.68 27 80.36 27 79 C26.34 79 25.68 79 25 79 C24.67 76.36 24.34 73.72 24 71 C23.34 71 22.68 71 22 71 C21.15787744 69.08717875 20.32661136 67.16957527 19.5 65.25 C19.0359375 64.18265625 18.571875 63.1153125 18.09375 62.015625 C17 59 17 59 17 55 C16.34 55 15.68 55 15 55 C14.67 52.03 14.34 49.06 14 46 C13.34 46 12.68 46 12 46 C12 45.01 12 44.02 12 43 C11.34 43 10.68 43 10 43 C9.67 40.36 9.34 37.72 9 35 C8.34 35 7.68 35 7 35 C7 33.35 7 31.7 7 30 C6.34 30 5.68 30 5 30 C4.67 27.03 4.34 24.06 4 21 C3.34 21 2.68 21 2 21 C1.15621025 18.94175571 0.32536378 16.87820214 -0.5 14.8125 C-0.9640625 13.66394531 -1.428125 12.51539063 -1.90625 11.33203125 C-2.90805652 8.28009923 -3.23870804 6.16884928 -3 3 C-2.01 2.67 -1.02 2.34 0 2 C0 1.34 0 0.68 0 0 Z " fill="#000000" transform="translate(140,1247)"/>
<path d="M0 0 C58.41 0 116.82 0 177 0 C177 0.66 177 1.32 177 2 C177.96099609 1.94779297 177.96099609 1.94779297 178.94140625 1.89453125 C185.67266004 1.68386608 190.52986083 2.20150067 195.9375 6.5625 C197 8 197 8 197 10 C197.66 10 198.32 10 199 10 C200.04944781 13.14834343 200.12915506 15.38743427 200.1328125 18.69140625 C200.13410156 19.80064453 200.13539063 20.90988281 200.13671875 22.05273438 C200.13285156 23.21095703 200.12898438 24.36917969 200.125 25.5625 C200.12886719 26.72458984 200.13273437 27.88667969 200.13671875 29.08398438 C200.13478516 30.7459082 200.13478516 30.7459082 200.1328125 32.44140625 C200.13168457 33.45920166 200.13055664 34.47699707 200.12939453 35.52563477 C200 38 200 38 199 40 C174.25 40 149.5 40 124 40 C124 100.06 124 160.12 124 222 C123.34 222 122.68 222 122 222 C122 222.99 122 223.98 122 225 C115.18238106 225.0252689 108.36477411 225.04283244 101.54711914 225.05493164 C99.22582549 225.05997333 96.90453503 225.06680651 94.58325195 225.07543945 C91.25471205 225.08751225 87.92621398 225.09322979 84.59765625 225.09765625 C83.03048607 225.10539818 83.03048607 225.10539818 81.43165588 225.11329651 C80.47073532 225.11337204 79.50981476 225.11344757 78.51977539 225.11352539 C77.66928116 225.115746 76.81878693 225.11796661 75.94252014 225.12025452 C74 225 74 225 73 224 C72.90235165 221.621922 72.87002867 219.27292872 72.87974548 216.89439392 C72.87889106 216.14216586 72.87803663 215.3899378 72.87715632 214.61491495 C72.87549926 212.07520285 72.88102655 209.5355557 72.88647461 206.99584961 C72.88675646 205.18291729 72.88659879 203.36998486 72.8860321 201.55705261 C72.88574404 196.61924287 72.89164219 191.68145719 72.89860606 186.74365306 C72.90483814 181.58932157 72.90544328 176.43498958 72.90663147 171.28065491 C72.90974522 161.51295908 72.91795919 151.74527438 72.92798096 141.97758347 C72.93914075 130.86048188 72.94465221 119.74337978 72.94967639 108.62627399 C72.96014177 85.75084172 72.97848779 62.87542473 73 40 C48.25 40 23.5 40 -2 40 C-2 39.34 -2 38.68 -2 38 C-2.66 38 -3.32 38 -4 38 C-4 26.45 -4 14.9 -4 3 C-2.68 2.67 -1.36 2.34 0 2 C0 1.34 0 0.68 0 0 Z " fill="#000000" transform="translate(1070,1247)"/>
<path d="M0 0 C4.29 0 8.58 0 13 0 C13 0.66 13 1.32 13 2 C13.66386719 1.98839844 14.32773437 1.97679687 15.01171875 1.96484375 C23.78207381 1.87521968 23.78207381 1.87521968 28 3 C28 3.66 28 4.32 28 5 C28.86625 5.185625 28.86625 5.185625 29.75 5.375 C32.02335767 6.00648824 33.9253529 6.88858191 36 8 C36 8.66 36 9.32 36 10 C36.66 10 37.32 10 38 10 C38 10.66 38 11.32 38 12 C38.99 12.33 39.98 12.66 41 13 C41 14.32 41 15.64 41 17 C41.66 17 42.32 17 43 17 C43 17.99 43 18.98 43 20 C43.66 20 44.32 20 45 20 C46.26289345 27.78057774 46.13351288 35.55394033 46.11352539 43.41210938 C46.11324299 44.96991982 46.11340229 46.5277304 46.1139679 48.08554077 C46.11425379 52.29568834 46.10839072 56.50580719 46.10139394 60.7159481 C46.09512573 65.12284574 46.09455386 69.5297441 46.09336853 73.93664551 C46.09026542 82.27330411 46.08206581 90.60994953 46.07201904 98.94660234 C46.06082618 108.44116406 46.05533946 117.93572641 46.05032361 127.43029308 C46.03988233 146.95353618 46.02230269 166.47676703 46 186 C46.9173996 185.99777939 47.83479919 185.99555878 48.77999878 185.99327087 C57.45940762 185.97316737 66.13880855 185.95797479 74.8182354 185.94818783 C79.27954991 185.942987 83.74084506 185.93594064 88.20214844 185.92456055 C92.51395989 185.91363162 96.82575281 185.90770211 101.13757706 185.90512276 C102.77605608 185.90328644 104.41453417 185.89970085 106.05300522 185.89426994 C114.42881046 185.86763159 122.67371955 185.94921614 131 187 C131 187.66 131 188.32 131 189 C131.99 189 132.98 189 134 189 C134 189.66 134 190.32 134 191 C135.65 191.33 137.3 191.66 139 192 C139 192.66 139 193.32 139 194 C139.66 194 140.32 194 141 194 C141 194.99 141 195.98 141 197 C141.66 197 142.32 197 143 197 C143.94306785 200.19022903 144.12881188 203.06592071 144.1328125 206.38671875 C144.13410156 207.40701172 144.13539063 208.42730469 144.13671875 209.47851562 C144.13285156 210.53748047 144.12898438 211.59644531 144.125 212.6875 C144.12886719 213.75806641 144.13273437 214.82863281 144.13671875 215.93164062 C144.13478516 217.4562793 144.13478516 217.4562793 144.1328125 219.01171875 C144.13168457 219.94459717 144.13055664 220.87747559 144.12939453 221.83862305 C144 224 144 224 143 225 C141.12936228 225.09871093 139.25495408 225.12632177 137.38171387 225.12698364 C135.5517411 225.13121338 135.5517411 225.13121338 133.68479919 225.13552856 C132.32046494 225.13358397 130.95613083 225.13153578 129.59179688 225.12939453 C128.16471817 225.13074854 126.73763982 225.13252846 125.31056213 225.13470459 C121.42430585 225.13927902 117.538076 225.13748933 113.65181923 225.1343255 C109.5936844 225.13180195 105.53555191 225.13413943 101.47741699 225.13571167 C94.66121004 225.13753338 87.84501391 225.13512702 81.02880859 225.13037109 C73.13705755 225.12492847 65.24533233 225.12669113 57.35358191 225.1321975 C50.5901179 225.13672859 43.82666169 225.1373792 37.06319666 225.13475883 C33.018318 225.13319603 28.9734515 225.13300236 24.92857361 225.13629532 C21.12671125 225.13917397 17.32488234 225.13719845 13.52302361 225.13140106 C12.12374362 225.13007343 10.72446085 225.13046763 9.32518196 225.13266373 C7.42288434 225.13537508 5.5205806 225.13138054 3.61828613 225.12698364 C2.55122688 225.12660662 1.48416763 225.12622959 0.38477325 225.12584114 C-2 225 -2 225 -3 224 C-3.09793251 221.14267276 -3.12992391 218.30951505 -3.12025452 215.45176697 C-3.12110894 214.54436392 -3.12196337 213.63696087 -3.12284368 212.70206076 C-3.12450127 209.63721038 -3.11897258 206.57241377 -3.11352539 203.50756836 C-3.11324355 201.32025656 -3.11340119 199.13294467 -3.1139679 196.94563293 C-3.114256 190.98719628 -3.10835714 185.02877955 -3.10139394 179.07034755 C-3.09516259 172.85098161 -3.09455678 166.63161528 -3.09336853 160.4122467 C-3.09060885 149.96680358 -3.08435336 139.52136732 -3.07543945 129.07592773 C-3.066266 118.31518592 -3.05918484 107.5544461 -3.05493164 96.79370117 C-3.05466892 96.13085088 -3.05440619 95.46800058 -3.05413551 94.78506391 C-3.05283051 91.45987074 -3.05156904 88.13467756 -3.05032361 84.80948436 C-3.03985774 57.20631779 -3.02225704 29.60315941 -3 2 C-2.01 2 -1.02 2 0 2 C0 1.34 0 0.68 0 0 Z " fill="#000000" transform="translate(922,1247)"/>
</svg>
